<svg width="32" height="32" viewBox="0 0 32 32" fill="none" xmlns="http://www.w3.org/2000/svg">
<path d="M29.5 18.2456H18.25V29.4956C18.25 30.0923 18.0129 30.6646 17.591 31.0866C17.169 31.5086 16.5967 31.7456 16 31.7456C15.4033 31.7456 14.831 31.5086 14.409 31.0866C13.9871 30.6646 13.75 30.0923 13.75 29.4956V18.2456H2.5C1.90326 18.2456 1.33097 18.0086 0.90901 17.5866C0.487053 17.1646 0.25 16.5923 0.25 15.9956C0.25 15.3989 0.487053 14.8266 0.90901 14.4046C1.33097 13.9827 1.90326 13.7456 2.5 13.7456H13.75V2.49561C13.75 1.89887 13.9871 1.32657 14.409 0.904615C14.831 0.482658 15.4033 0.245605 16 0.245605C16.5967 0.245605 17.169 0.482658 17.591 0.904615C18.0129 1.32657 18.25 1.89887 18.25 2.49561V13.7456H29.5C30.0967 13.7456 30.669 13.9827 31.091 14.4046C31.5129 14.8266 31.75 15.3989 31.75 15.9956C31.75 16.5923 31.5129 17.1646 31.091 17.5866C30.669 18.0086 30.0967 18.2456 29.5 18.2456Z" fill="black"/>
</svg>
