<svg width="777" height="327" viewBox="0 0 777 327" fill="none" xmlns="http://www.w3.org/2000/svg">
<path d="M326.401 216.756C316.312 222.194 304.531 215.962 301.063 205.037C296.408 190.376 293.859 174.773 293.773 158.58C293.316 72.3612 362.84 2.09612 449.06 1.63898L602.231 0.827222L604.249 0.829225C689.544 1.45753 758.719 70.5682 759.173 156.114C759.22 165.087 745.984 166.676 740.78 159.366C733.48 149.113 724.186 140.31 713.204 133.861L703.074 127.912C698.037 124.955 694.298 120.28 691.799 115.001C676.164 81.9744 642.644 59.1001 603.807 58.8138L602.539 58.8127L449.367 59.6245C395.596 59.9097 352.155 103.391 351.76 157.004L351.758 158.273C351.79 164.273 352.36 170.145 353.422 175.842C354.396 181.068 354.384 186.567 351.869 191.25C346.072 202.044 337.193 210.94 326.401 216.756ZM448.697 313.865C436.049 313.772 431.763 298.181 440.152 288.716C445.876 282.256 451.171 275.408 455.99 268.215C461.008 260.728 469.198 255.782 478.211 255.734L562.305 255.288C572.785 255.233 581.968 261.832 587.119 270.959C596.207 287.065 609.171 300.923 625.286 310.386C625.786 310.68 625.639 311.435 625.066 311.516C618.791 312.401 612.396 312.915 605.903 313.032L603.886 313.055L450.714 313.867L448.697 313.865Z" fill="white"/>
<path d="M433.598 100.818C443.688 95.3805 455.468 101.613 458.936 112.537C463.59 127.198 466.139 142.802 466.225 158.994C466.682 245.213 397.158 315.478 310.938 315.935L157.767 316.747L155.749 316.745C70.454 316.117 1.27895 247.006 0.825394 161.461L0.827397 159.443C0.889639 150.993 13.3097 149.568 18.0658 156.553C25.5302 167.514 35.2252 176.92 46.7936 183.713L56.924 189.662C61.9607 192.62 65.7001 197.294 68.1993 202.574C83.8344 235.6 117.354 258.474 156.191 258.761L157.459 258.762L310.631 257.95C364.402 257.665 407.843 214.184 408.238 160.57L408.24 159.301C408.208 153.301 407.637 147.43 406.575 141.732C405.601 136.507 405.613 131.007 408.128 126.325C413.925 115.53 422.806 106.633 433.598 100.818ZM309.284 3.70741C322.743 3.63611 327.337 20.2125 318.515 30.3776C313.298 36.3886 308.45 42.7276 304.005 49.3592C298.987 56.8464 290.798 61.7925 281.784 61.8403L197.693 62.2859C187.213 62.3415 178.03 55.7429 172.88 46.6157C163.791 30.5091 150.827 16.6516 134.712 7.18828C134.212 6.89478 134.359 6.13977 134.932 6.05882C141.207 5.17329 147.602 4.65921 154.095 4.54255L156.112 4.51917L309.284 3.70741Z" fill="white"/>
<path d="M701.162 153.179C663.425 136.777 619.561 154.119 603.179 191.834C586.799 229.546 604.122 273.437 641.831 289.82C679.571 306.225 723.434 288.877 739.817 251.168C756.221 213.423 738.874 169.559 701.162 153.179Z" stroke="white" stroke-width="12.1824" stroke-miterlimit="2" stroke-linecap="round" stroke-linejoin="round"/>
<path d="M706.811 237.813L698.636 190.816M706.811 237.813L666.044 261.437M706.811 237.813L739.33 251.642M698.636 190.816L650.991 188.476M698.636 190.816L720.837 165.697M650.991 188.476L632.552 231.835M650.991 188.476L633.272 157.901M632.552 231.835L666.044 261.437M632.552 231.835L598.538 236.571M666.044 261.437L665.522 295.776" stroke="white" stroke-width="12.1824" stroke-miterlimit="2" stroke-linecap="round" stroke-linejoin="round"/>
<path d="M26.9945 130.749C47.5532 166.377 93.1102 178.571 128.745 158.012C142.715 149.972 153.687 137.601 160.001 122.771C164.551 112.136 166.559 100.587 165.866 89.0397C165.173 77.4929 161.798 66.2666 156.008 56.2521C150.23 46.233 142.196 37.6987 132.543 31.3267C122.891 24.9546 111.886 20.9203 100.403 19.5438C84.4032 17.5961 68.2047 20.9117 54.2572 28.989C18.6294 49.563 6.42083 95.1207 26.9945 130.749Z" stroke="white" stroke-width="13"/>
<path d="M128.373 157.364C128.373 157.364 121.371 108.268 106.399 82.3308C91.4271 56.3937 54.6299 29.6445 54.6299 29.6445" stroke="white" stroke-width="13" stroke-linecap="round"/>
<path d="M164.976 97.8246C124.67 88.9828 69.5936 125.892 58.5544 159.189M124.38 28.0207C113.296 60.945 59.2769 97.3181 19.165 89.4222" stroke="white" stroke-width="13" stroke-linecap="round"/>
</svg>
