<?xml version="1.0" encoding="us-ascii" standalone="no"?><svg xmlns="http://www.w3.org/2000/svg" xmlns:xlink="http://www.w3.org/1999/xlink" contentStyleType="text/css" height="640px" preserveAspectRatio="none" style="width:632px;height:640px;background:#FFFFFF;" version="1.1" viewBox="0 0 632 640" width="632px" zoomAndPan="magnify"><defs/><g><!--class Utilisateur--><g id="elem_Utilisateur"><rect codeLine="2" fill="#F1F1F1" height="146.9297" id="Utilisateur" rx="2.5" ry="2.5" style="stroke:#181818;stroke-width:0.5;" width="195" x="115" y="486.81"/><ellipse cx="173.25" cy="502.81" fill="#ADD1B2" rx="11" ry="11" style="stroke:#181818;stroke-width:1.0;"/><path d="M175.7231,508.9531 Q175.1421,509.2519 174.5029,509.4013 Q173.8638,509.5507 173.1582,509.5507 Q170.6514,509.5507 169.3315,507.8989 Q168.0117,506.247 168.0117,503.1259 Q168.0117,499.9965 169.3315,498.3447 Q170.6514,496.6928 173.1582,496.6928 Q173.8638,496.6928 174.5112,496.8422 Q175.1587,496.9916 175.7231,497.2905 L175.7231,500.0131 Q175.0923,499.4321 174.4988,499.1623 Q173.9053,498.8925 173.2744,498.8925 Q171.9297,498.8925 171.2449,499.9592 Q170.5601,501.0258 170.5601,503.1259 Q170.5601,505.2177 171.2449,506.2844 Q171.9297,507.351 173.2744,507.351 Q173.9053,507.351 174.4988,507.0812 Q175.0923,506.8115 175.7231,506.2304 Z " fill="#000000"/><text fill="#000000" font-family="sans-serif" font-size="14" lengthAdjust="spacing" textLength="70" x="193.75" y="508.101">Utilisateur</text><line style="stroke:#181818;stroke-width:0.5;" x1="116" x2="309" y1="518.81" y2="518.81"/><rect fill="none" height="6" style="stroke:#C82930;stroke-width:1.0;" width="6" x="123" y="529.5541"/><text fill="#000000" font-family="sans-serif" font-size="14" lengthAdjust="spacing" textLength="59" x="135" y="536.3452">id : UUID</text><rect fill="none" height="6" style="stroke:#C82930;stroke-width:1.0;" width="6" x="123" y="546.0424"/><text fill="#000000" font-family="sans-serif" font-size="14" lengthAdjust="spacing" textLength="107" x="135" y="552.8334">prenom : String</text><rect fill="none" height="6" style="stroke:#C82930;stroke-width:1.0;" width="6" x="123" y="562.5307"/><text fill="#000000" font-family="sans-serif" font-size="14" lengthAdjust="spacing" textLength="84" x="135" y="569.3217">nom : String</text><rect fill="none" height="6" style="stroke:#C82930;stroke-width:1.0;" width="6" x="123" y="579.019"/><text fill="#000000" font-family="sans-serif" font-size="14" lengthAdjust="spacing" textLength="106" x="135" y="585.81">courriel : String</text><rect fill="none" height="6" style="stroke:#C82930;stroke-width:1.0;" width="6" x="123" y="595.5073"/><text fill="#000000" font-family="sans-serif" font-size="14" lengthAdjust="spacing" textLength="136" x="135" y="602.2983">motDePasse : String</text><rect fill="none" height="6" style="stroke:#C82930;stroke-width:1.0;" width="6" x="123" y="611.9955"/><text fill="#000000" font-family="sans-serif" font-size="14" lengthAdjust="spacing" textLength="169" x="135" y="618.7866">dateDeNaissance : String</text><line style="stroke:#181818;stroke-width:0.5;" x1="116" x2="309" y1="625.7397" y2="625.7397"/></g><!--class ProfilUtilisateurVueModele--><g id="elem_ProfilUtilisateurVueModele"><rect codeLine="11" fill="#F1F1F1" height="113.9531" id="ProfilUtilisateurVueModele" rx="2.5" ry="2.5" style="stroke:#181818;stroke-width:0.5;" width="411" x="7" y="312.86"/><ellipse cx="117.25" cy="328.86" fill="#ADD1B2" rx="11" ry="11" style="stroke:#181818;stroke-width:1.0;"/><path d="M119.7231,335.0031 Q119.1421,335.3019 118.5029,335.4513 Q117.8638,335.6007 117.1582,335.6007 Q114.6514,335.6007 113.3315,333.9489 Q112.0117,332.297 112.0117,329.1759 Q112.0117,326.0465 113.3315,324.3947 Q114.6514,322.7428 117.1582,322.7428 Q117.8638,322.7428 118.5112,322.8922 Q119.1587,323.0416 119.7231,323.3405 L119.7231,326.0631 Q119.0923,325.4821 118.4988,325.2123 Q117.9053,324.9425 117.2744,324.9425 Q115.9297,324.9425 115.2449,326.0092 Q114.5601,327.0758 114.5601,329.1759 Q114.5601,331.2677 115.2449,332.3344 Q115.9297,333.401 117.2744,333.401 Q117.9053,333.401 118.4988,333.1312 Q119.0923,332.8615 119.7231,332.2804 Z " fill="#000000"/><text fill="#000000" font-family="sans-serif" font-size="14" lengthAdjust="spacing" textLength="182" x="137.75" y="334.151">ProfilUtilisateurVueModele</text><line style="stroke:#181818;stroke-width:0.5;" x1="8" x2="417" y1="344.86" y2="344.86"/><rect fill="none" height="6" style="stroke:#C82930;stroke-width:1.0;" width="6" x="15" y="355.6041"/><text fill="#000000" font-family="sans-serif" font-size="14" lengthAdjust="spacing" textLength="151" x="27" y="362.3952">utilisateur : Utilisateur</text><rect fill="none" height="6" style="stroke:#C82930;stroke-width:1.0;" width="6" x="15" y="372.0924"/><text fill="#000000" font-family="sans-serif" font-size="14" lengthAdjust="spacing" textLength="164" x="27" y="378.8834">estEnChargement : Bool</text><line style="stroke:#181818;stroke-width:0.5;" x1="8" x2="417" y1="385.8366" y2="385.8366"/><ellipse cx="18" cy="399.5807" fill="#84BE84" rx="3" ry="3" style="stroke:#038048;stroke-width:1.0;"/><text fill="#000000" font-family="sans-serif" font-size="14" lengthAdjust="spacing" textLength="385" x="27" y="403.3717">modifierMotDePasse(nouveauMotDePasse : String) : void</text><ellipse cx="18" cy="416.069" fill="#84BE84" rx="3" ry="3" style="stroke:#038048;stroke-width:1.0;"/><text fill="#000000" font-family="sans-serif" font-size="14" lengthAdjust="spacing" textLength="174" x="27" y="419.86">chargerUtilisateur() : void</text></g><!--class ProfilUtilisateurVue--><g id="elem_ProfilUtilisateurVue"><rect codeLine="18" fill="#F1F1F1" height="64.4883" id="ProfilUtilisateurVue" rx="2.5" ry="2.5" style="stroke:#181818;stroke-width:0.5;" width="294" x="65.5" y="97.68"/><ellipse cx="142.25" cy="113.68" fill="#ADD1B2" rx="11" ry="11" style="stroke:#181818;stroke-width:1.0;"/><path d="M144.7231,119.8231 Q144.1421,120.1219 143.5029,120.2713 Q142.8638,120.4207 142.1582,120.4207 Q139.6514,120.4207 138.3315,118.7689 Q137.0117,117.117 137.0117,113.9959 Q137.0117,110.8665 138.3315,109.2147 Q139.6514,107.5628 142.1582,107.5628 Q142.8638,107.5628 143.5112,107.7122 Q144.1587,107.8616 144.7231,108.1605 L144.7231,110.8831 Q144.0923,110.3021 143.4988,110.0323 Q142.9053,109.7625 142.2744,109.7625 Q140.9297,109.7625 140.2449,110.8292 Q139.5601,111.8958 139.5601,113.9959 Q139.5601,116.0877 140.2449,117.1544 Q140.9297,118.221 142.2744,118.221 Q142.9053,118.221 143.4988,117.9512 Q144.0923,117.6815 144.7231,117.1004 Z " fill="#000000"/><text fill="#000000" font-family="sans-serif" font-size="14" lengthAdjust="spacing" textLength="132" x="162.75" y="118.971">ProfilUtilisateurVue</text><line style="stroke:#181818;stroke-width:0.5;" x1="66.5" x2="358.5" y1="129.68" y2="129.68"/><rect fill="none" height="6" style="stroke:#C82930;stroke-width:1.0;" width="6" x="73.5" y="140.4241"/><text fill="#000000" font-family="sans-serif" font-size="14" lengthAdjust="spacing" textLength="268" x="85.5" y="147.2152">vueModele : ProfilUtilisateurVueModele</text><line style="stroke:#181818;stroke-width:0.5;" x1="66.5" x2="358.5" y1="154.1683" y2="154.1683"/></g><!--class Activite--><g id="elem_Activite"><rect codeLine="25" fill="#F1F1F1" height="80.9766" id="Activite" rx="2.5" ry="2.5" style="stroke:#181818;stroke-width:0.5;" width="111" x="394" y="89.44"/><ellipse cx="422.05" cy="105.44" fill="#ADD1B2" rx="11" ry="11" style="stroke:#181818;stroke-width:1.0;"/><path d="M424.5231,111.5831 Q423.9421,111.8819 423.3029,112.0313 Q422.6638,112.1807 421.9582,112.1807 Q419.4514,112.1807 418.1315,110.5289 Q416.8117,108.877 416.8117,105.7559 Q416.8117,102.6265 418.1315,100.9747 Q419.4514,99.3228 421.9582,99.3228 Q422.6638,99.3228 423.3112,99.4722 Q423.9587,99.6216 424.5231,99.9205 L424.5231,102.6431 Q423.8923,102.0621 423.2988,101.7923 Q422.7053,101.5225 422.0744,101.5225 Q420.7297,101.5225 420.0449,102.5892 Q419.3601,103.6558 419.3601,105.7559 Q419.3601,107.8477 420.0449,108.9144 Q420.7297,109.981 422.0744,109.981 Q422.7053,109.981 423.2988,109.7112 Q423.8923,109.4415 424.5231,108.8604 Z " fill="#000000"/><text fill="#000000" font-family="sans-serif" font-size="14" lengthAdjust="spacing" textLength="50" x="438.95" y="110.731">Activite</text><line style="stroke:#181818;stroke-width:0.5;" x1="395" x2="504" y1="121.44" y2="121.44"/><rect fill="none" height="6" style="stroke:#C82930;stroke-width:1.0;" width="6" x="402" y="132.1841"/><text fill="#000000" font-family="sans-serif" font-size="14" lengthAdjust="spacing" textLength="59" x="414" y="138.9752">id : UUID</text><rect fill="none" height="6" style="stroke:#C82930;stroke-width:1.0;" width="6" x="402" y="148.6724"/><text fill="#000000" font-family="sans-serif" font-size="14" lengthAdjust="spacing" textLength="85" x="414" y="155.4634">sport : Sport</text><line style="stroke:#181818;stroke-width:0.5;" x1="395" x2="504" y1="162.4166" y2="162.4166"/></g><!--class Sport--><g id="elem_Sport"><rect codeLine="30" fill="#F1F1F1" height="245.8594" id="Sport" rx="2.5" ry="2.5" style="stroke:#181818;stroke-width:0.5;" width="86" x="539.5" y="7"/><ellipse cx="562.15" cy="23" fill="#EB937F" rx="11" ry="11" style="stroke:#181818;stroke-width:1.0;"/><path d="M565.7643,29.5 L558.0445,29.5 L558.0445,17.1069 L565.7643,17.1069 L565.7643,19.2651 L560.4933,19.2651 L560.4933,21.938 L565.2662,21.938 L565.2662,24.0962 L560.4933,24.0962 L560.4933,27.3418 L565.7643,27.3418 Z " fill="#000000"/><text fill="#000000" font-family="sans-serif" font-size="14" lengthAdjust="spacing" textLength="37" x="577.85" y="28.291">Sport</text><line style="stroke:#181818;stroke-width:0.5;" x1="540.5" x2="624.5" y1="39" y2="39"/><text fill="#000000" font-family="sans-serif" font-size="14" lengthAdjust="spacing" textLength="69" x="545.5" y="56.5352">Basketball</text><text fill="#000000" font-family="sans-serif" font-size="14" lengthAdjust="spacing" textLength="45" x="545.5" y="73.0234">Soccer</text><text fill="#000000" font-family="sans-serif" font-size="14" lengthAdjust="spacing" textLength="66" x="545.5" y="89.5117">Volleyball</text><text fill="#000000" font-family="sans-serif" font-size="14" lengthAdjust="spacing" textLength="56" x="545.5" y="106">Baseball</text><text fill="#000000" font-family="sans-serif" font-size="14" lengthAdjust="spacing" textLength="46" x="545.5" y="122.4883">Tennis</text><text fill="#000000" font-family="sans-serif" font-size="14" lengthAdjust="spacing" textLength="74" x="545.5" y="138.9766">Badminton</text><text fill="#000000" font-family="sans-serif" font-size="14" lengthAdjust="spacing" textLength="64" x="545.5" y="155.4648">Pickleball</text><text fill="#000000" font-family="sans-serif" font-size="14" lengthAdjust="spacing" textLength="70" x="545.5" y="171.9531">Waterpolo</text><text fill="#000000" font-family="sans-serif" font-size="14" lengthAdjust="spacing" textLength="56" x="545.5" y="188.4414">Football</text><text fill="#000000" font-family="sans-serif" font-size="14" lengthAdjust="spacing" textLength="43" x="545.5" y="204.9297">Rugby</text><text fill="#000000" font-family="sans-serif" font-size="14" lengthAdjust="spacing" textLength="57" x="545.5" y="221.418">Ultimate</text><text fill="#000000" font-family="sans-serif" font-size="14" lengthAdjust="spacing" textLength="49" x="545.5" y="237.9063">Hockey</text><line style="stroke:#181818;stroke-width:0.5;" x1="540.5" x2="624.5" y1="244.8594" y2="244.8594"/></g><!--link ProfilUtilisateurVueModele to Utilisateur--><g id="link_ProfilUtilisateurVueModele_Utilisateur"><path codeLine="22" d="M212.5,427.12 C212.5,445.77 212.5,454.81 212.5,474.52 " fill="none" id="ProfilUtilisateurVueModele-to-Utilisateur" style="stroke:#181818;stroke-width:1.0;"/><polygon fill="#181818" points="212.5,486.52,216.5,480.52,212.5,474.52,208.5,480.52,212.5,486.52" style="stroke:#181818;stroke-width:1.0;"/><text fill="#000000" font-family="sans-serif" font-size="13" lengthAdjust="spacing" textLength="8" x="204.0375" y="447.1969">1</text><text fill="#000000" font-family="sans-serif" font-size="13" lengthAdjust="spacing" textLength="8" x="204.1063" y="476.1051">1</text></g><!--link ProfilUtilisateurVue to ProfilUtilisateurVueModele--><g id="link_ProfilUtilisateurVue_ProfilUtilisateurVueModele"><path codeLine="23" d="M212.5,162.52 C212.5,200.69 212.5,259.61 212.5,306.45 " fill="none" id="ProfilUtilisateurVue-to-ProfilUtilisateurVueModele" style="stroke:#181818;stroke-width:1.0;stroke-dasharray:7.0,7.0;"/><polygon fill="#181818" points="212.5,312.45,216.5,303.45,212.5,307.45,208.5,303.45,212.5,312.45" style="stroke:#181818;stroke-width:1.0;"/></g><!--SRC=[ZL9DJy904BtpApQUK0E9Lmuc8XezO8XOF2-x0qpOtI7xqOGG_hkpjP1MiV4qh_DUPzwRLXaPWYWY6WmoGlBYq1DY80uh1AEF0hKOYQ9udRIwEm-EB3FpwD6jMzoVXABaFSFBhAKuWHcRWSkyPdSJU9COWdIg8JhsUgeACVEqGjE8iaWm9Gq6VcHAZRIZPlQM2a9ySeyRwTTWmKLMZeaCIsx5mKBSK6LQ8ylzz6o-xoYL8DFqTvnhHYMXRezGrGRVSD4_2pkZrQ7ASyXHnmNog8xxNDrTYS7WfghDUrpSEnpUTssgBJ-eY2L6-DV_57RayuNdkMQlu9BzVghU7ykmXRYK9jz_Jaf1_bOBCWRsTPSbKCCFS0v3rTCMNIJ7U8PgQqwAJ_RiTsI8yJFHQV9xMY_tN0iJqRA4uGkfBUopfIy0]--></g></svg>