<?xml version="1.0" encoding="us-ascii" standalone="no"?><svg xmlns="http://www.w3.org/2000/svg" xmlns:xlink="http://www.w3.org/1999/xlink" contentStyleType="text/css" height="673px" preserveAspectRatio="none" style="width:2864px;height:673px;background:#FFFFFF;" version="1.1" viewBox="0 0 2864 673" width="2864px" zoomAndPan="magnify"><defs/><g><!--class Utilisateur--><g id="elem_Utilisateur"><rect codeLine="2" fill="#F1F1F1" height="146.9297" id="Utilisateur" rx="2.5" ry="2.5" style="stroke:#181818;stroke-width:0.5;" width="216" x="846" y="329.35"/><ellipse cx="914.75" cy="345.35" fill="#ADD1B2" rx="11" ry="11" style="stroke:#181818;stroke-width:1.0;"/><path d="M917.2231,351.4931 Q916.6421,351.7919 916.0029,351.9413 Q915.3638,352.0907 914.6582,352.0907 Q912.1514,352.0907 910.8315,350.4389 Q909.5117,348.787 909.5117,345.6659 Q909.5117,342.5365 910.8315,340.8847 Q912.1514,339.2328 914.6582,339.2328 Q915.3638,339.2328 916.0112,339.3822 Q916.6587,339.5316 917.2231,339.8305 L917.2231,342.5531 Q916.5923,341.9721 915.9988,341.7023 Q915.4053,341.4325 914.7744,341.4325 Q913.4297,341.4325 912.7449,342.4992 Q912.0601,343.5658 912.0601,345.6659 Q912.0601,347.7577 912.7449,348.8244 Q913.4297,349.891 914.7744,349.891 Q915.4053,349.891 915.9988,349.6212 Q916.5923,349.3515 917.2231,348.7704 Z " fill="#000000"/><text fill="#000000" font-family="sans-serif" font-size="14" lengthAdjust="spacing" textLength="70" x="935.25" y="350.641">Utilisateur</text><line style="stroke:#181818;stroke-width:0.5;" x1="847" x2="1061" y1="361.35" y2="361.35"/><rect fill="none" height="6" style="stroke:#C82930;stroke-width:1.0;" width="6" x="854" y="372.0941"/><text fill="#000000" font-family="sans-serif" font-size="14" lengthAdjust="spacing" textLength="59" x="866" y="378.8852">id : UUID</text><rect fill="none" height="6" style="stroke:#C82930;stroke-width:1.0;" width="6" x="854" y="388.5824"/><text fill="#000000" font-family="sans-serif" font-size="14" lengthAdjust="spacing" textLength="154" x="866" y="395.3734">nomUtilisateur : String</text><rect fill="none" height="6" style="stroke:#C82930;stroke-width:1.0;" width="6" x="854" y="405.0707"/><text fill="#000000" font-family="sans-serif" font-size="14" lengthAdjust="spacing" textLength="106" x="866" y="411.8617">courriel : String</text><rect fill="none" height="6" style="stroke:#C82930;stroke-width:1.0;" width="6" x="854" y="421.559"/><text fill="#000000" font-family="sans-serif" font-size="14" lengthAdjust="spacing" textLength="186" x="866" y="428.35">sportsFavoris : List&lt;Sport&gt;</text><rect fill="none" height="6" style="stroke:#C82930;stroke-width:1.0;" width="6" x="854" y="438.0473"/><text fill="#000000" font-family="sans-serif" font-size="14" lengthAdjust="spacing" textLength="190" x="866" y="444.8383">disponibilites : List&lt;String&gt;</text><rect fill="none" height="6" style="stroke:#C82930;stroke-width:1.0;" width="6" x="854" y="454.5355"/><text fill="#000000" font-family="sans-serif" font-size="14" lengthAdjust="spacing" textLength="130" x="866" y="461.3266">photoProfil : String</text><line style="stroke:#181818;stroke-width:0.5;" x1="847" x2="1061" y1="468.2797" y2="468.2797"/></g><!--class AuthVueModele--><g id="elem_AuthVueModele"><rect codeLine="10" fill="#F1F1F1" height="146.9297" id="AuthVueModele" rx="2.5" ry="2.5" style="stroke:#181818;stroke-width:0.5;" width="566" x="7" y="56.47"/><ellipse cx="231.25" cy="72.47" fill="#ADD1B2" rx="11" ry="11" style="stroke:#181818;stroke-width:1.0;"/><path d="M233.7231,78.6131 Q233.1421,78.9119 232.5029,79.0613 Q231.8638,79.2107 231.1582,79.2107 Q228.6514,79.2107 227.3315,77.5589 Q226.0117,75.907 226.0117,72.7859 Q226.0117,69.6565 227.3315,68.0047 Q228.6514,66.3528 231.1582,66.3528 Q231.8638,66.3528 232.5112,66.5022 Q233.1587,66.6516 233.7231,66.9505 L233.7231,69.6731 Q233.0923,69.0921 232.4988,68.8223 Q231.9053,68.5525 231.2744,68.5525 Q229.9297,68.5525 229.2449,69.6192 Q228.5601,70.6858 228.5601,72.7859 Q228.5601,74.8777 229.2449,75.9444 Q229.9297,77.011 231.2744,77.011 Q231.9053,77.011 232.4988,76.7412 Q233.0923,76.4715 233.7231,75.8904 Z " fill="#000000"/><text fill="#000000" font-family="sans-serif" font-size="14" lengthAdjust="spacing" textLength="109" x="251.75" y="77.761">AuthVueModele</text><line style="stroke:#181818;stroke-width:0.5;" x1="8" x2="572" y1="88.47" y2="88.47"/><rect fill="none" height="6" style="stroke:#C82930;stroke-width:1.0;" width="6" x="15" y="99.2141"/><text fill="#000000" font-family="sans-serif" font-size="14" lengthAdjust="spacing" textLength="106" x="27" y="106.0052">courriel : String</text><rect fill="none" height="6" style="stroke:#C82930;stroke-width:1.0;" width="6" x="15" y="115.7024"/><text fill="#000000" font-family="sans-serif" font-size="14" lengthAdjust="spacing" textLength="136" x="27" y="122.4934">motDePasse : String</text><rect fill="none" height="6" style="stroke:#C82930;stroke-width:1.0;" width="6" x="15" y="132.1907"/><text fill="#000000" font-family="sans-serif" font-size="14" lengthAdjust="spacing" textLength="189" x="27" y="138.9817">estEnChargement : Boolean</text><line style="stroke:#181818;stroke-width:0.5;" x1="8" x2="572" y1="145.9348" y2="145.9348"/><ellipse cx="18" cy="159.679" fill="#84BE84" rx="3" ry="3" style="stroke:#038048;stroke-width:1.0;"/><text fill="#000000" font-family="sans-serif" font-size="14" lengthAdjust="spacing" textLength="540" x="27" y="163.47">inscrire(courriel : String, nomUtilisateur : String, motDePasse : String) : Boolean</text><ellipse cx="18" cy="176.1673" fill="#84BE84" rx="3" ry="3" style="stroke:#038048;stroke-width:1.0;"/><text fill="#000000" font-family="sans-serif" font-size="14" lengthAdjust="spacing" textLength="410" x="27" y="179.9583">connecter(courriel : String, motDePasse : String) : Utilisateur</text><ellipse cx="18" cy="192.6555" fill="#84BE84" rx="3" ry="3" style="stroke:#038048;stroke-width:1.0;"/><text fill="#000000" font-family="sans-serif" font-size="14" lengthAdjust="spacing" textLength="270" x="27" y="196.4466">mettreAJourMDP(courriel : String) : void</text></g><!--class ProfilUtilisateurVueModele--><g id="elem_ProfilUtilisateurVueModele"><rect codeLine="18" fill="#F1F1F1" height="146.9297" id="ProfilUtilisateurVueModele" rx="2.5" ry="2.5" style="stroke:#181818;stroke-width:0.5;" width="693" x="607.5" y="56.47"/><ellipse cx="858.75" cy="72.47" fill="#ADD1B2" rx="11" ry="11" style="stroke:#181818;stroke-width:1.0;"/><path d="M861.2231,78.6131 Q860.6421,78.9119 860.0029,79.0613 Q859.3638,79.2107 858.6582,79.2107 Q856.1514,79.2107 854.8315,77.5589 Q853.5117,75.907 853.5117,72.7859 Q853.5117,69.6565 854.8315,68.0047 Q856.1514,66.3528 858.6582,66.3528 Q859.3638,66.3528 860.0112,66.5022 Q860.6587,66.6516 861.2231,66.9505 L861.2231,69.6731 Q860.5923,69.0921 859.9988,68.8223 Q859.4053,68.5525 858.7744,68.5525 Q857.4297,68.5525 856.7449,69.6192 Q856.0601,70.6858 856.0601,72.7859 Q856.0601,74.8777 856.7449,75.9444 Q857.4297,77.011 858.7744,77.011 Q859.4053,77.011 859.9988,76.7412 Q860.5923,76.4715 861.2231,75.8904 Z " fill="#000000"/><text fill="#000000" font-family="sans-serif" font-size="14" lengthAdjust="spacing" textLength="182" x="879.25" y="77.761">ProfilUtilisateurVueModele</text><line style="stroke:#181818;stroke-width:0.5;" x1="608.5" x2="1299.5" y1="88.47" y2="88.47"/><rect fill="none" height="6" style="stroke:#C82930;stroke-width:1.0;" width="6" x="615.5" y="99.2141"/><text fill="#000000" font-family="sans-serif" font-size="14" lengthAdjust="spacing" textLength="151" x="627.5" y="106.0052">utilisateur : Utilisateur</text><rect fill="none" height="6" style="stroke:#C82930;stroke-width:1.0;" width="6" x="615.5" y="115.7024"/><text fill="#000000" font-family="sans-serif" font-size="14" lengthAdjust="spacing" textLength="189" x="627.5" y="122.4934">estEnChargement : Boolean</text><line style="stroke:#181818;stroke-width:0.5;" x1="608.5" x2="1299.5" y1="129.4466" y2="129.4466"/><ellipse cx="618.5" cy="143.1907" fill="#84BE84" rx="3" ry="3" style="stroke:#038048;stroke-width:1.0;"/><text fill="#000000" font-family="sans-serif" font-size="14" lengthAdjust="spacing" textLength="385" x="627.5" y="146.9817">modifierMotDePasse(nouveauMotDePasse : String) : void</text><ellipse cx="618.5" cy="159.679" fill="#84BE84" rx="3" ry="3" style="stroke:#038048;stroke-width:1.0;"/><text fill="#000000" font-family="sans-serif" font-size="14" lengthAdjust="spacing" textLength="174" x="627.5" y="163.47">chargerUtilisateur() : void</text><ellipse cx="618.5" cy="176.1673" fill="#84BE84" rx="3" ry="3" style="stroke:#038048;stroke-width:1.0;"/><text fill="#000000" font-family="sans-serif" font-size="14" lengthAdjust="spacing" textLength="667" x="627.5" y="179.9583">modifierProfil(sportsFavoris : List&lt;Sport&gt;, disponibilites : List&lt;String&gt;, photoProfil : String) : void</text><ellipse cx="618.5" cy="192.6555" fill="#84BE84" rx="3" ry="3" style="stroke:#038048;stroke-width:1.0;"/><text fill="#000000" font-family="sans-serif" font-size="14" lengthAdjust="spacing" textLength="334" x="627.5" y="196.4466">changerPhotoProfil(nouvellePhoto : String) : void</text></g><!--class Activite--><g id="elem_Activite"><rect codeLine="32" fill="#F1F1F1" height="179.9063" id="Activite" rx="2.5" ry="2.5" style="stroke:#181818;stroke-width:0.5;" width="225" x="2056.5" y="312.86"/><ellipse cx="2139.75" cy="328.86" fill="#A9DCDF" rx="11" ry="11" style="stroke:#181818;stroke-width:1.0;"/><path d="M2139.6133,324.2081 L2138.4595,329.2799 L2140.7754,329.2799 Z M2138.1191,321.9669 L2141.1157,321.9669 L2144.4609,334.36 L2142.0122,334.36 L2141.2485,331.297 L2137.9697,331.297 L2137.2227,334.36 L2134.7739,334.36 Z " fill="#000000"/><text fill="#000000" font-family="sans-serif" font-size="14" font-style="italic" lengthAdjust="spacing" textLength="50" x="2160.25" y="334.151">Activite</text><line style="stroke:#181818;stroke-width:0.5;" x1="2057.5" x2="2280.5" y1="344.86" y2="344.86"/><rect fill="none" height="6" style="stroke:#C82930;stroke-width:1.0;" width="6" x="2064.5" y="355.6041"/><text fill="#000000" font-family="sans-serif" font-size="14" lengthAdjust="spacing" textLength="59" x="2076.5" y="362.3952">id : UUID</text><rect fill="none" height="6" style="stroke:#C82930;stroke-width:1.0;" width="6" x="2064.5" y="372.0924"/><text fill="#000000" font-family="sans-serif" font-size="14" lengthAdjust="spacing" textLength="85" x="2076.5" y="378.8834">sport : Sport</text><rect fill="none" height="6" style="stroke:#C82930;stroke-width:1.0;" width="6" x="2064.5" y="388.5807"/><text fill="#000000" font-family="sans-serif" font-size="14" lengthAdjust="spacing" textLength="188" x="2076.5" y="395.3717">intervalleDate : DateInterval</text><rect fill="none" height="6" style="stroke:#C82930;stroke-width:1.0;" width="6" x="2064.5" y="405.069"/><text fill="#000000" font-family="sans-serif" font-size="14" lengthAdjust="spacing" textLength="184" x="2076.5" y="411.86">placesDisponibles : Integer</text><rect fill="none" height="6" style="stroke:#C82930;stroke-width:1.0;" width="6" x="2064.5" y="421.5573"/><text fill="#000000" font-family="sans-serif" font-size="14" lengthAdjust="spacing" textLength="196" x="2076.5" y="428.3483">emplacement : Emplacement</text><rect fill="none" height="6" style="stroke:#C82930;stroke-width:1.0;" width="6" x="2064.5" y="438.0455"/><text fill="#000000" font-family="sans-serif" font-size="14" lengthAdjust="spacing" textLength="122" x="2076.5" y="444.8366">complet : Boolean</text><rect fill="none" height="6" style="stroke:#C82930;stroke-width:1.0;" width="6" x="2064.5" y="454.5338"/><text fill="#000000" font-family="sans-serif" font-size="14" lengthAdjust="spacing" textLength="183" x="2076.5" y="461.3248">messages : List&lt;Message&gt;</text><rect fill="none" height="6" style="stroke:#C82930;stroke-width:1.0;" width="6" x="2064.5" y="471.0221"/><text fill="#000000" font-family="sans-serif" font-size="14" lengthAdjust="spacing" textLength="199" x="2076.5" y="477.8131">invitationsOuvertes : Boolean</text><line style="stroke:#181818;stroke-width:0.5;" x1="2057.5" x2="2280.5" y1="484.7663" y2="484.7663"/></g><!--class CreationActiviteVueModele--><g id="elem_CreationActiviteVueModele"><rect codeLine="42" fill="#F1F1F1" height="97.4648" id="CreationActiviteVueModele" rx="2.5" ry="2.5" style="stroke:#181818;stroke-width:0.5;" width="948" x="1336" y="81.2"/><ellipse cx="1713.25" cy="97.2" fill="#ADD1B2" rx="11" ry="11" style="stroke:#181818;stroke-width:1.0;"/><path d="M1715.7231,103.3431 Q1715.1421,103.6419 1714.5029,103.7913 Q1713.8638,103.9407 1713.1582,103.9407 Q1710.6514,103.9407 1709.3315,102.2889 Q1708.0117,100.637 1708.0117,97.5159 Q1708.0117,94.3865 1709.3315,92.7347 Q1710.6514,91.0828 1713.1582,91.0828 Q1713.8638,91.0828 1714.5112,91.2322 Q1715.1587,91.3816 1715.7231,91.6805 L1715.7231,94.4031 Q1715.0923,93.8221 1714.4988,93.5523 Q1713.9053,93.2825 1713.2744,93.2825 Q1711.9297,93.2825 1711.2449,94.3492 Q1710.5601,95.4158 1710.5601,97.5159 Q1710.5601,99.6077 1711.2449,100.6744 Q1711.9297,101.741 1713.2744,101.741 Q1713.9053,101.741 1714.4988,101.4712 Q1715.0923,101.2015 1715.7231,100.6204 Z " fill="#000000"/><text fill="#000000" font-family="sans-serif" font-size="14" lengthAdjust="spacing" textLength="185" x="1733.75" y="102.491">CreationActiviteVueModele</text><line style="stroke:#181818;stroke-width:0.5;" x1="1337" x2="2283" y1="113.2" y2="113.2"/><rect fill="none" height="6" style="stroke:#C82930;stroke-width:1.0;" width="6" x="1344" y="123.9441"/><text fill="#000000" font-family="sans-serif" font-size="14" lengthAdjust="spacing" textLength="110" x="1356" y="130.7352">activite : Activite</text><rect fill="none" height="6" style="stroke:#C82930;stroke-width:1.0;" width="6" x="1344" y="140.4324"/><text fill="#000000" font-family="sans-serif" font-size="14" lengthAdjust="spacing" textLength="189" x="1356" y="147.2234">estEnChargement : Boolean</text><line style="stroke:#181818;stroke-width:0.5;" x1="1337" x2="2283" y1="154.1766" y2="154.1766"/><ellipse cx="1347" cy="167.9207" fill="#84BE84" rx="3" ry="3" style="stroke:#038048;stroke-width:1.0;"/><text fill="#000000" font-family="sans-serif" font-size="14" lengthAdjust="spacing" textLength="922" x="1356" y="171.7117">creerActivite(mode : ModeUtilisateur, date : Date, sport : Sport, places : Integer, debut : String, fin : String, lieu : String) : Task&lt;Activite&gt;</text></g><!--class DetailActiviteVueModele--><g id="elem_DetailActiviteVueModele"><rect codeLine="47" fill="#F1F1F1" height="146.9297" id="DetailActiviteVueModele" rx="2.5" ry="2.5" style="stroke:#181818;stroke-width:0.5;" width="417" x="2319.5" y="56.47"/><ellipse cx="2441.25" cy="72.47" fill="#ADD1B2" rx="11" ry="11" style="stroke:#181818;stroke-width:1.0;"/><path d="M2443.7231,78.6131 Q2443.1421,78.9119 2442.5029,79.0613 Q2441.8638,79.2107 2441.1582,79.2107 Q2438.6514,79.2107 2437.3315,77.5589 Q2436.0117,75.907 2436.0117,72.7859 Q2436.0117,69.6565 2437.3315,68.0047 Q2438.6514,66.3528 2441.1582,66.3528 Q2441.8638,66.3528 2442.5112,66.5022 Q2443.1587,66.6516 2443.7231,66.9505 L2443.7231,69.6731 Q2443.0923,69.0921 2442.4988,68.8223 Q2441.9053,68.5525 2441.2744,68.5525 Q2439.9297,68.5525 2439.2449,69.6192 Q2438.5601,70.6858 2438.5601,72.7859 Q2438.5601,74.8777 2439.2449,75.9444 Q2439.9297,77.011 2441.2744,77.011 Q2441.9053,77.011 2442.4988,76.7412 Q2443.0923,76.4715 2443.7231,75.8904 Z " fill="#000000"/><text fill="#000000" font-family="sans-serif" font-size="14" lengthAdjust="spacing" textLength="165" x="2461.75" y="77.761">DetailActiviteVueModele</text><line style="stroke:#181818;stroke-width:0.5;" x1="2320.5" x2="2735.5" y1="88.47" y2="88.47"/><rect fill="none" height="6" style="stroke:#C82930;stroke-width:1.0;" width="6" x="2327.5" y="99.2141"/><text fill="#000000" font-family="sans-serif" font-size="14" lengthAdjust="spacing" textLength="134" x="2339.5" y="106.0052">activite       : Activite</text><rect fill="none" height="6" style="stroke:#C82930;stroke-width:1.0;" width="6" x="2327.5" y="115.7024"/><text fill="#000000" font-family="sans-serif" font-size="14" lengthAdjust="spacing" textLength="209" x="2339.5" y="122.4934">estEnChargement      : Boolean</text><line style="stroke:#181818;stroke-width:0.5;" x1="2320.5" x2="2735.5" y1="129.4466" y2="129.4466"/><ellipse cx="2330.5" cy="143.1907" fill="#84BE84" rx="3" ry="3" style="stroke:#038048;stroke-width:1.0;"/><text fill="#000000" font-family="sans-serif" font-size="14" lengthAdjust="spacing" textLength="212" x="2339.5" y="146.9817">participer() : Task&lt;Utilisateur&gt;</text><ellipse cx="2330.5" cy="159.679" fill="#84BE84" rx="3" ry="3" style="stroke:#038048;stroke-width:1.0;"/><text fill="#000000" font-family="sans-serif" font-size="14" lengthAdjust="spacing" textLength="228" x="2339.5" y="163.47">supprimerActivite() : Task&lt;Void&gt;</text><ellipse cx="2330.5" cy="176.1673" fill="#84BE84" rx="3" ry="3" style="stroke:#038048;stroke-width:1.0;"/><text fill="#000000" font-family="sans-serif" font-size="14" lengthAdjust="spacing" textLength="246" x="2339.5" y="179.9583">annulerParticipation() : Task&lt;Void&gt;</text><ellipse cx="2330.5" cy="192.6555" fill="#84BE84" rx="3" ry="3" style="stroke:#038048;stroke-width:1.0;"/><text fill="#000000" font-family="sans-serif" font-size="14" lengthAdjust="spacing" textLength="391" x="2339.5" y="196.4466">modifierActivite(nouvellesInfos: Activite) : Task&lt;Activite&gt;</text></g><!--class Emplacement--><g id="elem_Emplacement"><rect codeLine="62" fill="#F1F1F1" height="113.9531" id="Emplacement" rx="2.5" ry="2.5" style="stroke:#181818;stroke-width:0.5;" width="299" x="2019.5" y="552.77"/><ellipse cx="2118.75" cy="568.77" fill="#ADD1B2" rx="11" ry="11" style="stroke:#181818;stroke-width:1.0;"/><path d="M2121.2231,574.9131 Q2120.6421,575.2119 2120.0029,575.3613 Q2119.3638,575.5107 2118.6582,575.5107 Q2116.1514,575.5107 2114.8315,573.8589 Q2113.5117,572.207 2113.5117,569.0859 Q2113.5117,565.9565 2114.8315,564.3047 Q2116.1514,562.6528 2118.6582,562.6528 Q2119.3638,562.6528 2120.0112,562.8022 Q2120.6587,562.9516 2121.2231,563.2505 L2121.2231,565.9731 Q2120.5923,565.3921 2119.9988,565.1223 Q2119.4053,564.8525 2118.7744,564.8525 Q2117.4297,564.8525 2116.7449,565.9192 Q2116.0601,566.9858 2116.0601,569.0859 Q2116.0601,571.1777 2116.7449,572.2444 Q2117.4297,573.311 2118.7744,573.311 Q2119.4053,573.311 2119.9988,573.0412 Q2120.5923,572.7715 2121.2231,572.1904 Z " fill="#000000"/><text fill="#000000" font-family="sans-serif" font-size="14" lengthAdjust="spacing" textLength="92" x="2139.25" y="574.061">Emplacement</text><line style="stroke:#181818;stroke-width:0.5;" x1="2020.5" x2="2317.5" y1="584.77" y2="584.77"/><rect fill="none" height="6" style="stroke:#C82930;stroke-width:1.0;" width="6" x="2027.5" y="595.5141"/><text fill="#000000" font-family="sans-serif" font-size="14" lengthAdjust="spacing" textLength="176" x="2039.5" y="602.3052">nomEmplacement : String</text><rect fill="none" height="6" style="stroke:#C82930;stroke-width:1.0;" width="6" x="2027.5" y="612.0024"/><text fill="#000000" font-family="sans-serif" font-size="14" lengthAdjust="spacing" textLength="273" x="2039.5" y="618.7934">coordonnees : CLLocationCoordinate2D</text><rect fill="none" height="6" style="stroke:#C82930;stroke-width:1.0;" width="6" x="2027.5" y="628.4907"/><text fill="#000000" font-family="sans-serif" font-size="14" lengthAdjust="spacing" textLength="221" x="2039.5" y="635.2817">sportsDisponibles : List&lt;String&gt;</text><rect fill="none" height="6" style="stroke:#C82930;stroke-width:1.0;" width="6" x="2027.5" y="644.979"/><text fill="#000000" font-family="sans-serif" font-size="14" lengthAdjust="spacing" textLength="176" x="2039.5" y="651.77">heuresOuvertures : String</text><line style="stroke:#181818;stroke-width:0.5;" x1="2020.5" x2="2317.5" y1="658.7231" y2="658.7231"/></g><!--class Message--><g id="elem_Message"><rect codeLine="74" fill="#F1F1F1" height="113.9531" id="Message" rx="2.5" ry="2.5" style="stroke:#181818;stroke-width:0.5;" width="183" x="2378.5" y="552.77"/><ellipse cx="2436.25" cy="568.77" fill="#ADD1B2" rx="11" ry="11" style="stroke:#181818;stroke-width:1.0;"/><path d="M2438.7231,574.9131 Q2438.1421,575.2119 2437.5029,575.3613 Q2436.8638,575.5107 2436.1582,575.5107 Q2433.6514,575.5107 2432.3315,573.8589 Q2431.0117,572.207 2431.0117,569.0859 Q2431.0117,565.9565 2432.3315,564.3047 Q2433.6514,562.6528 2436.1582,562.6528 Q2436.8638,562.6528 2437.5112,562.8022 Q2438.1587,562.9516 2438.7231,563.2505 L2438.7231,565.9731 Q2438.0923,565.3921 2437.4988,565.1223 Q2436.9053,564.8525 2436.2744,564.8525 Q2434.9297,564.8525 2434.2449,565.9192 Q2433.5601,566.9858 2433.5601,569.0859 Q2433.5601,571.1777 2434.2449,572.2444 Q2434.9297,573.311 2436.2744,573.311 Q2436.9053,573.311 2437.4988,573.0412 Q2438.0923,572.7715 2438.7231,572.1904 Z " fill="#000000"/><text fill="#000000" font-family="sans-serif" font-size="14" lengthAdjust="spacing" textLength="59" x="2456.75" y="574.061">Message</text><line style="stroke:#181818;stroke-width:0.5;" x1="2379.5" x2="2560.5" y1="584.77" y2="584.77"/><rect fill="none" height="6" style="stroke:#C82930;stroke-width:1.0;" width="6" x="2386.5" y="595.5141"/><text fill="#000000" font-family="sans-serif" font-size="14" lengthAdjust="spacing" textLength="59" x="2398.5" y="602.3052">id : UUID</text><rect fill="none" height="6" style="stroke:#C82930;stroke-width:1.0;" width="6" x="2386.5" y="612.0024"/><text fill="#000000" font-family="sans-serif" font-size="14" lengthAdjust="spacing" textLength="109" x="2398.5" y="618.7934">contenu : String</text><rect fill="none" height="6" style="stroke:#C82930;stroke-width:1.0;" width="6" x="2386.5" y="628.4907"/><text fill="#000000" font-family="sans-serif" font-size="14" lengthAdjust="spacing" textLength="101" x="2398.5" y="635.2817">envoyeA : Date</text><rect fill="none" height="6" style="stroke:#C82930;stroke-width:1.0;" width="6" x="2386.5" y="644.979"/><text fill="#000000" font-family="sans-serif" font-size="14" lengthAdjust="spacing" textLength="157" x="2398.5" y="651.77">expediteur : Utilisateur</text><line style="stroke:#181818;stroke-width:0.5;" x1="2379.5" x2="2560.5" y1="658.7231" y2="658.7231"/></g><!--class ConversationVueModele--><g id="elem_ConversationVueModele"><rect codeLine="80" fill="#F1F1F1" height="130.4414" id="ConversationVueModele" rx="2.5" ry="2.5" style="stroke:#181818;stroke-width:0.5;" width="358" x="2316" y="337.59"/><ellipse cx="2407.25" cy="353.59" fill="#ADD1B2" rx="11" ry="11" style="stroke:#181818;stroke-width:1.0;"/><path d="M2409.7231,359.7331 Q2409.1421,360.0319 2408.5029,360.1813 Q2407.8638,360.3307 2407.1582,360.3307 Q2404.6514,360.3307 2403.3315,358.6789 Q2402.0117,357.027 2402.0117,353.9059 Q2402.0117,350.7765 2403.3315,349.1247 Q2404.6514,347.4728 2407.1582,347.4728 Q2407.8638,347.4728 2408.5112,347.6222 Q2409.1587,347.7716 2409.7231,348.0705 L2409.7231,350.7931 Q2409.0923,350.2121 2408.4988,349.9423 Q2407.9053,349.6725 2407.2744,349.6725 Q2405.9297,349.6725 2405.2449,350.7392 Q2404.5601,351.8058 2404.5601,353.9059 Q2404.5601,355.9977 2405.2449,357.0644 Q2405.9297,358.131 2407.2744,358.131 Q2407.9053,358.131 2408.4988,357.8612 Q2409.0923,357.5915 2409.7231,357.0104 Z " fill="#000000"/><text fill="#000000" font-family="sans-serif" font-size="14" lengthAdjust="spacing" textLength="167" x="2427.75" y="358.881">ConversationVueModele</text><line style="stroke:#181818;stroke-width:0.5;" x1="2317" x2="2673" y1="369.59" y2="369.59"/><rect fill="none" height="6" style="stroke:#C82930;stroke-width:1.0;" width="6" x="2324" y="380.3341"/><text fill="#000000" font-family="sans-serif" font-size="14" lengthAdjust="spacing" textLength="110" x="2336" y="387.1252">activite : Activite</text><rect fill="none" height="6" style="stroke:#C82930;stroke-width:1.0;" width="6" x="2324" y="396.8224"/><text fill="#000000" font-family="sans-serif" font-size="14" lengthAdjust="spacing" textLength="183" x="2336" y="403.6134">messages : List&lt;Message&gt;</text><rect fill="none" height="6" style="stroke:#C82930;stroke-width:1.0;" width="6" x="2324" y="413.3107"/><text fill="#000000" font-family="sans-serif" font-size="14" lengthAdjust="spacing" textLength="189" x="2336" y="420.1017">estEnChargement : Boolean</text><line style="stroke:#181818;stroke-width:0.5;" x1="2317" x2="2673" y1="427.0548" y2="427.0548"/><ellipse cx="2327" cy="440.799" fill="#84BE84" rx="3" ry="3" style="stroke:#038048;stroke-width:1.0;"/><text fill="#000000" font-family="sans-serif" font-size="14" lengthAdjust="spacing" textLength="296" x="2336" y="444.59">obtenirMessages() : Task&lt;List&lt;Message&gt;&gt;</text><ellipse cx="2327" cy="457.2873" fill="#84BE84" rx="3" ry="3" style="stroke:#038048;stroke-width:1.0;"/><text fill="#000000" font-family="sans-serif" font-size="14" lengthAdjust="spacing" textLength="332" x="2336" y="461.0783">envoyerMessage(texte: String) : Task&lt;Message&gt;</text></g><!--class Sport--><g id="elem_Sport"><rect codeLine="91" fill="#F1F1F1" height="245.8594" id="Sport" rx="2.5" ry="2.5" style="stroke:#181818;stroke-width:0.5;" width="86" x="2771" y="7"/><ellipse cx="2793.65" cy="23" fill="#EB937F" rx="11" ry="11" style="stroke:#181818;stroke-width:1.0;"/><path d="M2797.2643,29.5 L2789.5445,29.5 L2789.5445,17.1069 L2797.2643,17.1069 L2797.2643,19.2651 L2791.9933,19.2651 L2791.9933,21.938 L2796.7662,21.938 L2796.7662,24.0962 L2791.9933,24.0962 L2791.9933,27.3418 L2797.2643,27.3418 Z " fill="#000000"/><text fill="#000000" font-family="sans-serif" font-size="14" lengthAdjust="spacing" textLength="37" x="2809.35" y="28.291">Sport</text><line style="stroke:#181818;stroke-width:0.5;" x1="2772" x2="2856" y1="39" y2="39"/><text fill="#000000" font-family="sans-serif" font-size="14" lengthAdjust="spacing" textLength="69" x="2777" y="56.5352">Basketball</text><text fill="#000000" font-family="sans-serif" font-size="14" lengthAdjust="spacing" textLength="45" x="2777" y="73.0234">Soccer</text><text fill="#000000" font-family="sans-serif" font-size="14" lengthAdjust="spacing" textLength="66" x="2777" y="89.5117">Volleyball</text><text fill="#000000" font-family="sans-serif" font-size="14" lengthAdjust="spacing" textLength="56" x="2777" y="106">Baseball</text><text fill="#000000" font-family="sans-serif" font-size="14" lengthAdjust="spacing" textLength="46" x="2777" y="122.4883">Tennis</text><text fill="#000000" font-family="sans-serif" font-size="14" lengthAdjust="spacing" textLength="74" x="2777" y="138.9766">Badminton</text><text fill="#000000" font-family="sans-serif" font-size="14" lengthAdjust="spacing" textLength="64" x="2777" y="155.4648">Pickleball</text><text fill="#000000" font-family="sans-serif" font-size="14" lengthAdjust="spacing" textLength="70" x="2777" y="171.9531">Waterpolo</text><text fill="#000000" font-family="sans-serif" font-size="14" lengthAdjust="spacing" textLength="56" x="2777" y="188.4414">Football</text><text fill="#000000" font-family="sans-serif" font-size="14" lengthAdjust="spacing" textLength="43" x="2777" y="204.9297">Rugby</text><text fill="#000000" font-family="sans-serif" font-size="14" lengthAdjust="spacing" textLength="57" x="2777" y="221.418">Ultimate</text><text fill="#000000" font-family="sans-serif" font-size="14" lengthAdjust="spacing" textLength="49" x="2777" y="237.9063">Hockey</text><line style="stroke:#181818;stroke-width:0.5;" x1="2772" x2="2856" y1="244.8594" y2="244.8594"/></g><!--link AuthVueModele to Utilisateur--><g id="link_AuthVueModele_Utilisateur"><path codeLine="26" d="M468.81,203.88 C589.04,252.93 738.0444,313.7138 840.0244,355.3138 " fill="none" id="AuthVueModele-to-Utilisateur" style="stroke:#181818;stroke-width:1.0;"/><polygon fill="#181818" points="845.58,357.58,838.7575,350.4769,840.9504,355.6915,835.7358,357.8843,845.58,357.58" style="stroke:#181818;stroke-width:1.0;"/></g><!--link ProfilUtilisateurVueModele to Utilisateur--><g id="link_ProfilUtilisateurVueModele_Utilisateur"><path codeLine="27" d="M954,203.88 C954,242.74 954,278.39 954,317.21 " fill="none" id="ProfilUtilisateurVueModele-to-Utilisateur" style="stroke:#181818;stroke-width:1.0;"/><polygon fill="#181818" points="954,329.21,958,323.21,954,317.21,950,323.21,954,329.21" style="stroke:#181818;stroke-width:1.0;"/></g><!--link DetailActiviteVueModele to Activite--><g id="link_DetailActiviteVueModele_Activite"><path codeLine="55" d="M2431.32,203.88 C2385.22,238.67 2334.5697,276.8863 2286.5497,313.1163 " fill="none" id="DetailActiviteVueModele-to-Activite" style="stroke:#181818;stroke-width:1.0;"/><polygon fill="#181818" points="2281.76,316.73,2291.3537,314.5026,2285.7514,313.7186,2286.5354,308.1163,2281.76,316.73" style="stroke:#181818;stroke-width:1.0;"/></g><!--link CreationActiviteVueModele to Utilisateur--><g id="link_CreationActiviteVueModele_Utilisateur"><path codeLine="56" d="M1657.95,179.05 C1486.8,233.21 1218.7304,318.0397 1068.0004,365.7397 " fill="none" id="CreationActiviteVueModele-to-Utilisateur" style="stroke:#181818;stroke-width:1.0;"/><polygon fill="#181818" points="1062.28,367.55,1072.0674,368.6482,1067.047,366.0414,1069.6537,361.021,1062.28,367.55" style="stroke:#181818;stroke-width:1.0;"/></g><!--link CreationActiviteVueModele to Activite--><g id="link_CreationActiviteVueModele_Activite"><path codeLine="57" d="M1873.77,179.05 C1924.24,217.13 1991.2108,267.6556 2051.3408,313.0356 " fill="none" id="CreationActiviteVueModele-to-Activite" style="stroke:#181818;stroke-width:1.0;"/><polygon fill="#181818" points="2056.13,316.65,2051.3558,308.0356,2052.139,313.638,2046.5366,314.4212,2056.13,316.65" style="stroke:#181818;stroke-width:1.0;"/></g><!--reverse link Activite to Emplacement--><g id="link_Activite_Emplacement"><path codeLine="68" d="M2169,505.1 C2169,525.27 2169,534.14 2169,552.49 " fill="none" id="Activite-backto-Emplacement" style="stroke:#181818;stroke-width:1.0;"/><polygon fill="none" points="2169,493.1,2165,499.1,2169,505.1,2173,499.1,2169,493.1" style="stroke:#181818;stroke-width:1.0;"/></g><!--reverse link Activite to Message--><g id="link_Activite_Message"><path codeLine="69" d="M2291.6362,487.7479 C2297.4762,491.7279 2293.35,488.92 2299,492.77 C2327.61,512.26 2358.95,533.53 2386.89,552.48 " fill="none" id="Activite-backto-Message" style="stroke:#181818;stroke-width:1.0;"/><polygon fill="#181818" points="2281.72,480.99,2284.4254,487.6744,2291.6362,487.7479,2288.9307,481.0636,2281.72,480.99" style="stroke:#181818;stroke-width:1.0;"/></g><!--link ConversationVueModele to Message--><g id="link_ConversationVueModele_Message"><path codeLine="87" d="M2487.12,468.37 C2483.83,495.36 2481.4901,514.5079 2478.3201,540.5479 " fill="none" id="ConversationVueModele-to-Message" style="stroke:#181818;stroke-width:1.0;"/><polygon fill="#181818" points="2476.87,552.46,2481.5657,546.9873,2478.3201,540.5479,2473.6244,546.0206,2476.87,552.46" style="stroke:#181818;stroke-width:1.0;"/></g><!--SRC=[jLPBRzim3BxdL-ZMh4ikEnP5W2nnjmnn5ooFdHMRIOJQaY79GOEX_ttKmw_4JhkjyyKsIL7aH_AJeeGgHTQQ9KnH3Raaltg430cBoHrPhsTJ-yT5MZUv8qij6TzRNIHoAHaaJQdAXDJgWHw5P0fLSwRq_T88HrOVCxJWR8jEDLG6re6po0v2YuKKErPp_TABRC3ZN1ysEOGYXWHio5sX67agz1GMk0xEDQ1qm2S7AlUG0jUe_Yn40fHR_KV2k8eaaz2_S3te0cNGjjs72y-Hu1mY3RBDTOU7sdRUImfQInX_GnVXT77fogmw2XQNm3b0QuwQA0v9taYfkUDrl30Q4RCT0ncMuVUvo8z0yx0z8HkQHSEwbBNj-WrzuTc5tx_INOFhhJLexQlpM3Z6igZiN1P90bRM1cwp7uV3KGEvAw0FXxSDqzxDyA-Ucww5P3nPpJQpLK3-SE7hEzAjqf96clYPZ3Gx8kIj368hPf0pRwVdsFn7YgXECNLKcTVC2nq393G2DVNbJ6mjZG4MnpLZQYry8mRLd-Sb542pHP4AG2cwhzeYTFyZ7nB6JpKJN7t7WalNFiNoOeGc4gnDaU_v1D42XxiIaZVCJYG1P67VntutwutVMdTWRrTG3PgO3ZnS5KPe3TjSrsXbntZjBs6GDtfvHTNJVH72gCnt2fgovDLitVDApjwcddX6fMOHoy2Dl0sYblF86gayooHBQmYLjXkSG6T4ESyJ75plq1QfpQuWaz9NCTvgndT2LIcqWj85XndwClVk7ZddXkkMfSFtvWKIX8lvU1A4mUEAl3ClkBQfpQDl5JmmWyR8DcuHGiRcIBGTF9dFHMHXcHWvuuZLfngHd972nTtXWCY2ds7pLUv535SN7IiC33NMA1MtgF34y1y8EGoMo_6NBZx-T-1zvAqqZBSE3JnlOW_yA4umzhpYHCyPnApb4b2IeE08hh8rUYi1NkNUw-mejXWsatw5ggQwuSYDjqkdiErhUDPmGNFbtY-zzbJCmLpsG7j9IF2u3Zk61q5E7J5RK3xZdg2tUDhXpr94aJt2DW99v-IbQ0B-SmMSuxt62kCK3qfXK5Ymw2afJ7vYEMGc4e7V3q8Khd_a- -q9t-j4izGLywk8dk24UVu6]--></g></svg>