<?xml version="1.0" encoding="us-ascii" standalone="no"?><svg xmlns="http://www.w3.org/2000/svg" xmlns:xlink="http://www.w3.org/1999/xlink" contentStyleType="text/css" height="673px" preserveAspectRatio="none" style="width:3599px;height:673px;background:#FFFFFF;" version="1.1" viewBox="0 0 3599 673" width="3599px" zoomAndPan="magnify"><defs/><g><!--class Utilisateur--><g id="elem_Utilisateur"><rect codeLine="2" fill="#F1F1F1" height="146.9297" id="Utilisateur" rx="2.5" ry="2.5" style="stroke:#181818;stroke-width:0.5;" width="216" x="1454" y="329.35"/><ellipse cx="1522.75" cy="345.35" fill="#ADD1B2" rx="11" ry="11" style="stroke:#181818;stroke-width:1.0;"/><path d="M1525.2231,351.4931 Q1524.6421,351.7919 1524.0029,351.9413 Q1523.3638,352.0907 1522.6582,352.0907 Q1520.1514,352.0907 1518.8315,350.4389 Q1517.5117,348.787 1517.5117,345.6659 Q1517.5117,342.5365 1518.8315,340.8847 Q1520.1514,339.2328 1522.6582,339.2328 Q1523.3638,339.2328 1524.0112,339.3822 Q1524.6587,339.5316 1525.2231,339.8305 L1525.2231,342.5531 Q1524.5923,341.9721 1523.9988,341.7023 Q1523.4053,341.4325 1522.7744,341.4325 Q1521.4297,341.4325 1520.7449,342.4992 Q1520.0601,343.5658 1520.0601,345.6659 Q1520.0601,347.7577 1520.7449,348.8244 Q1521.4297,349.891 1522.7744,349.891 Q1523.4053,349.891 1523.9988,349.6212 Q1524.5923,349.3515 1525.2231,348.7704 Z " fill="#000000"/><text fill="#000000" font-family="sans-serif" font-size="14" lengthAdjust="spacing" textLength="70" x="1543.25" y="350.641">Utilisateur</text><line style="stroke:#181818;stroke-width:0.5;" x1="1455" x2="1669" y1="361.35" y2="361.35"/><rect fill="none" height="6" style="stroke:#C82930;stroke-width:1.0;" width="6" x="1462" y="372.0941"/><text fill="#000000" font-family="sans-serif" font-size="14" lengthAdjust="spacing" textLength="59" x="1474" y="378.8852">id : UUID</text><rect fill="none" height="6" style="stroke:#C82930;stroke-width:1.0;" width="6" x="1462" y="388.5824"/><text fill="#000000" font-family="sans-serif" font-size="14" lengthAdjust="spacing" textLength="154" x="1474" y="395.3734">nomUtilisateur : String</text><rect fill="none" height="6" style="stroke:#C82930;stroke-width:1.0;" width="6" x="1462" y="405.0707"/><text fill="#000000" font-family="sans-serif" font-size="14" lengthAdjust="spacing" textLength="106" x="1474" y="411.8617">courriel : String</text><rect fill="none" height="6" style="stroke:#C82930;stroke-width:1.0;" width="6" x="1462" y="421.559"/><text fill="#000000" font-family="sans-serif" font-size="14" lengthAdjust="spacing" textLength="186" x="1474" y="428.35">sportsFavoris : List&lt;Sport&gt;</text><rect fill="none" height="6" style="stroke:#C82930;stroke-width:1.0;" width="6" x="1462" y="438.0473"/><text fill="#000000" font-family="sans-serif" font-size="14" lengthAdjust="spacing" textLength="190" x="1474" y="444.8383">disponibilites : List&lt;String&gt;</text><rect fill="none" height="6" style="stroke:#C82930;stroke-width:1.0;" width="6" x="1462" y="454.5355"/><text fill="#000000" font-family="sans-serif" font-size="14" lengthAdjust="spacing" textLength="130" x="1474" y="461.3266">photoProfil : String</text><line style="stroke:#181818;stroke-width:0.5;" x1="1455" x2="1669" y1="468.2797" y2="468.2797"/></g><!--class AuthVueModele--><g id="elem_AuthVueModele"><rect codeLine="10" fill="#F1F1F1" height="146.9297" id="AuthVueModele" rx="2.5" ry="2.5" style="stroke:#181818;stroke-width:0.5;" width="566" x="285" y="56.47"/><ellipse cx="509.25" cy="72.47" fill="#ADD1B2" rx="11" ry="11" style="stroke:#181818;stroke-width:1.0;"/><path d="M511.7231,78.6131 Q511.1421,78.9119 510.5029,79.0613 Q509.8638,79.2107 509.1582,79.2107 Q506.6514,79.2107 505.3315,77.5589 Q504.0117,75.907 504.0117,72.7859 Q504.0117,69.6565 505.3315,68.0047 Q506.6514,66.3528 509.1582,66.3528 Q509.8638,66.3528 510.5112,66.5022 Q511.1587,66.6516 511.7231,66.9505 L511.7231,69.6731 Q511.0923,69.0921 510.4988,68.8223 Q509.9053,68.5525 509.2744,68.5525 Q507.9297,68.5525 507.2449,69.6192 Q506.5601,70.6858 506.5601,72.7859 Q506.5601,74.8777 507.2449,75.9444 Q507.9297,77.011 509.2744,77.011 Q509.9053,77.011 510.4988,76.7412 Q511.0923,76.4715 511.7231,75.8904 Z " fill="#000000"/><text fill="#000000" font-family="sans-serif" font-size="14" lengthAdjust="spacing" textLength="109" x="529.75" y="77.761">AuthVueModele</text><line style="stroke:#181818;stroke-width:0.5;" x1="286" x2="850" y1="88.47" y2="88.47"/><rect fill="none" height="6" style="stroke:#C82930;stroke-width:1.0;" width="6" x="293" y="99.2141"/><text fill="#000000" font-family="sans-serif" font-size="14" lengthAdjust="spacing" textLength="106" x="305" y="106.0052">courriel : String</text><rect fill="none" height="6" style="stroke:#C82930;stroke-width:1.0;" width="6" x="293" y="115.7024"/><text fill="#000000" font-family="sans-serif" font-size="14" lengthAdjust="spacing" textLength="136" x="305" y="122.4934">motDePasse : String</text><rect fill="none" height="6" style="stroke:#C82930;stroke-width:1.0;" width="6" x="293" y="132.1907"/><text fill="#000000" font-family="sans-serif" font-size="14" lengthAdjust="spacing" textLength="189" x="305" y="138.9817">estEnChargement : Boolean</text><line style="stroke:#181818;stroke-width:0.5;" x1="286" x2="850" y1="145.9348" y2="145.9348"/><ellipse cx="296" cy="159.679" fill="#84BE84" rx="3" ry="3" style="stroke:#038048;stroke-width:1.0;"/><text fill="#000000" font-family="sans-serif" font-size="14" lengthAdjust="spacing" textLength="540" x="305" y="163.47">inscrire(courriel : String, nomUtilisateur : String, motDePasse : String) : Boolean</text><ellipse cx="296" cy="176.1673" fill="#84BE84" rx="3" ry="3" style="stroke:#038048;stroke-width:1.0;"/><text fill="#000000" font-family="sans-serif" font-size="14" lengthAdjust="spacing" textLength="410" x="305" y="179.9583">connecter(courriel : String, motDePasse : String) : Utilisateur</text><ellipse cx="296" cy="192.6555" fill="#84BE84" rx="3" ry="3" style="stroke:#038048;stroke-width:1.0;"/><text fill="#000000" font-family="sans-serif" font-size="14" lengthAdjust="spacing" textLength="270" x="305" y="196.4466">mettreAJourMDP(courriel : String) : void</text></g><!--class ProfilUtilisateurVueModele--><g id="elem_ProfilUtilisateurVueModele"><rect codeLine="18" fill="#F1F1F1" height="146.9297" id="ProfilUtilisateurVueModele" rx="2.5" ry="2.5" style="stroke:#181818;stroke-width:0.5;" width="693" x="885.5" y="56.47"/><ellipse cx="1136.75" cy="72.47" fill="#ADD1B2" rx="11" ry="11" style="stroke:#181818;stroke-width:1.0;"/><path d="M1139.2231,78.6131 Q1138.6421,78.9119 1138.0029,79.0613 Q1137.3638,79.2107 1136.6582,79.2107 Q1134.1514,79.2107 1132.8315,77.5589 Q1131.5117,75.907 1131.5117,72.7859 Q1131.5117,69.6565 1132.8315,68.0047 Q1134.1514,66.3528 1136.6582,66.3528 Q1137.3638,66.3528 1138.0112,66.5022 Q1138.6587,66.6516 1139.2231,66.9505 L1139.2231,69.6731 Q1138.5923,69.0921 1137.9988,68.8223 Q1137.4053,68.5525 1136.7744,68.5525 Q1135.4297,68.5525 1134.7449,69.6192 Q1134.0601,70.6858 1134.0601,72.7859 Q1134.0601,74.8777 1134.7449,75.9444 Q1135.4297,77.011 1136.7744,77.011 Q1137.4053,77.011 1137.9988,76.7412 Q1138.5923,76.4715 1139.2231,75.8904 Z " fill="#000000"/><text fill="#000000" font-family="sans-serif" font-size="14" lengthAdjust="spacing" textLength="182" x="1157.25" y="77.761">ProfilUtilisateurVueModele</text><line style="stroke:#181818;stroke-width:0.5;" x1="886.5" x2="1577.5" y1="88.47" y2="88.47"/><rect fill="none" height="6" style="stroke:#C82930;stroke-width:1.0;" width="6" x="893.5" y="99.2141"/><text fill="#000000" font-family="sans-serif" font-size="14" lengthAdjust="spacing" textLength="151" x="905.5" y="106.0052">utilisateur : Utilisateur</text><rect fill="none" height="6" style="stroke:#C82930;stroke-width:1.0;" width="6" x="893.5" y="115.7024"/><text fill="#000000" font-family="sans-serif" font-size="14" lengthAdjust="spacing" textLength="189" x="905.5" y="122.4934">estEnChargement : Boolean</text><line style="stroke:#181818;stroke-width:0.5;" x1="886.5" x2="1577.5" y1="129.4466" y2="129.4466"/><ellipse cx="896.5" cy="143.1907" fill="#84BE84" rx="3" ry="3" style="stroke:#038048;stroke-width:1.0;"/><text fill="#000000" font-family="sans-serif" font-size="14" lengthAdjust="spacing" textLength="385" x="905.5" y="146.9817">modifierMotDePasse(nouveauMotDePasse : String) : void</text><ellipse cx="896.5" cy="159.679" fill="#84BE84" rx="3" ry="3" style="stroke:#038048;stroke-width:1.0;"/><text fill="#000000" font-family="sans-serif" font-size="14" lengthAdjust="spacing" textLength="174" x="905.5" y="163.47">chargerUtilisateur() : void</text><ellipse cx="896.5" cy="176.1673" fill="#84BE84" rx="3" ry="3" style="stroke:#038048;stroke-width:1.0;"/><text fill="#000000" font-family="sans-serif" font-size="14" lengthAdjust="spacing" textLength="667" x="905.5" y="179.9583">modifierProfil(sportsFavoris : List&lt;Sport&gt;, disponibilites : List&lt;String&gt;, photoProfil : String) : void</text><ellipse cx="896.5" cy="192.6555" fill="#84BE84" rx="3" ry="3" style="stroke:#038048;stroke-width:1.0;"/><text fill="#000000" font-family="sans-serif" font-size="14" lengthAdjust="spacing" textLength="334" x="905.5" y="196.4466">changerPhotoProfil(nouvellePhoto : String) : void</text></g><!--class Activite--><g id="elem_Activite"><rect codeLine="32" fill="#F1F1F1" height="179.9063" id="Activite" rx="2.5" ry="2.5" style="stroke:#181818;stroke-width:0.5;" width="222" x="2071" y="312.86"/><ellipse cx="2152.75" cy="328.86" fill="#A9DCDF" rx="11" ry="11" style="stroke:#181818;stroke-width:1.0;"/><path d="M2152.6133,324.2081 L2151.4595,329.2799 L2153.7754,329.2799 Z M2151.1191,321.9669 L2154.1157,321.9669 L2157.4609,334.36 L2155.0122,334.36 L2154.2485,331.297 L2150.9697,331.297 L2150.2227,334.36 L2147.7739,334.36 Z " fill="#000000"/><text fill="#000000" font-family="sans-serif" font-size="14" font-style="italic" lengthAdjust="spacing" textLength="50" x="2173.25" y="334.151">Activite</text><line style="stroke:#181818;stroke-width:0.5;" x1="2072" x2="2292" y1="344.86" y2="344.86"/><rect fill="none" height="6" style="stroke:#C82930;stroke-width:1.0;" width="6" x="2079" y="355.6041"/><text fill="#000000" font-family="sans-serif" font-size="14" lengthAdjust="spacing" textLength="59" x="2091" y="362.3952">id : UUID</text><rect fill="none" height="6" style="stroke:#C82930;stroke-width:1.0;" width="6" x="2079" y="372.0924"/><text fill="#000000" font-family="sans-serif" font-size="14" lengthAdjust="spacing" textLength="85" x="2091" y="378.8834">sport : Sport</text><rect fill="none" height="6" style="stroke:#C82930;stroke-width:1.0;" width="6" x="2079" y="388.5807"/><text fill="#000000" font-family="sans-serif" font-size="14" lengthAdjust="spacing" textLength="188" x="2091" y="395.3717">intervalleDate : DateInterval</text><rect fill="none" height="6" style="stroke:#C82930;stroke-width:1.0;" width="6" x="2079" y="405.069"/><text fill="#000000" font-family="sans-serif" font-size="14" lengthAdjust="spacing" textLength="184" x="2091" y="411.86">placesDisponibles : Integer</text><rect fill="none" height="6" style="stroke:#C82930;stroke-width:1.0;" width="6" x="2079" y="421.5573"/><text fill="#000000" font-family="sans-serif" font-size="14" lengthAdjust="spacing" textLength="103" x="2091" y="428.3483">niveau : Niveau</text><rect fill="none" height="6" style="stroke:#C82930;stroke-width:1.0;" width="6" x="2079" y="438.0455"/><text fill="#000000" font-family="sans-serif" font-size="14" lengthAdjust="spacing" textLength="196" x="2091" y="444.8366">emplacement : Emplacement</text><rect fill="none" height="6" style="stroke:#C82930;stroke-width:1.0;" width="6" x="2079" y="454.5338"/><text fill="#000000" font-family="sans-serif" font-size="14" lengthAdjust="spacing" textLength="122" x="2091" y="461.3248">complet : Boolean</text><rect fill="none" height="6" style="stroke:#C82930;stroke-width:1.0;" width="6" x="2079" y="471.0221"/><text fill="#000000" font-family="sans-serif" font-size="14" lengthAdjust="spacing" textLength="183" x="2091" y="477.8131">messages : List&lt;Message&gt;</text><line style="stroke:#181818;stroke-width:0.5;" x1="2072" x2="2292" y1="484.7663" y2="484.7663"/></g><!--class ActiviteCompetitif--><g id="elem_ActiviteCompetitif"><rect codeLine="42" fill="#F1F1F1" height="64.4883" id="ActiviteCompetitif" rx="2.5" ry="2.5" style="stroke:#181818;stroke-width:0.5;" width="440" x="1384" y="577.5"/><ellipse cx="1538.75" cy="593.5" fill="#ADD1B2" rx="11" ry="11" style="stroke:#181818;stroke-width:1.0;"/><path d="M1541.2231,599.6431 Q1540.6421,599.9419 1540.0029,600.0913 Q1539.3638,600.2407 1538.6582,600.2407 Q1536.1514,600.2407 1534.8315,598.5889 Q1533.5117,596.937 1533.5117,593.8159 Q1533.5117,590.6865 1534.8315,589.0347 Q1536.1514,587.3828 1538.6582,587.3828 Q1539.3638,587.3828 1540.0112,587.5322 Q1540.6587,587.6816 1541.2231,587.9805 L1541.2231,590.7031 Q1540.5923,590.1221 1539.9988,589.8523 Q1539.4053,589.5825 1538.7744,589.5825 Q1537.4297,589.5825 1536.7449,590.6492 Q1536.0601,591.7158 1536.0601,593.8159 Q1536.0601,595.9077 1536.7449,596.9744 Q1537.4297,598.041 1538.7744,598.041 Q1539.4053,598.041 1539.9988,597.7712 Q1540.5923,597.5015 1541.2231,596.9204 Z " fill="#000000"/><text fill="#000000" font-family="sans-serif" font-size="14" lengthAdjust="spacing" textLength="122" x="1559.25" y="598.791">ActiviteCompetitif</text><line style="stroke:#181818;stroke-width:0.5;" x1="1385" x2="1823" y1="609.5" y2="609.5"/><rect fill="none" height="6" style="stroke:#C82930;stroke-width:1.0;" width="6" x="1392" y="620.2441"/><text fill="#000000" font-family="sans-serif" font-size="14" lengthAdjust="spacing" textLength="414" x="1404" y="627.0352">notesAttribuees : Dict&lt;Utilisateur, Dict&lt;Utilisateur, String&gt;&gt;</text><line style="stroke:#181818;stroke-width:0.5;" x1="1385" x2="1823" y1="633.9883" y2="633.9883"/></g><!--class ActiviteRecreatif--><g id="elem_ActiviteRecreatif"><rect codeLine="45" fill="#F1F1F1" height="64.4883" id="ActiviteRecreatif" rx="2.5" ry="2.5" style="stroke:#181818;stroke-width:0.5;" width="225" x="1858.5" y="577.5"/><ellipse cx="1911.75" cy="593.5" fill="#ADD1B2" rx="11" ry="11" style="stroke:#181818;stroke-width:1.0;"/><path d="M1914.2231,599.6431 Q1913.6421,599.9419 1913.0029,600.0913 Q1912.3638,600.2407 1911.6582,600.2407 Q1909.1514,600.2407 1907.8315,598.5889 Q1906.5117,596.937 1906.5117,593.8159 Q1906.5117,590.6865 1907.8315,589.0347 Q1909.1514,587.3828 1911.6582,587.3828 Q1912.3638,587.3828 1913.0112,587.5322 Q1913.6587,587.6816 1914.2231,587.9805 L1914.2231,590.7031 Q1913.5923,590.1221 1912.9988,589.8523 Q1912.4053,589.5825 1911.7744,589.5825 Q1910.4297,589.5825 1909.7449,590.6492 Q1909.0601,591.7158 1909.0601,593.8159 Q1909.0601,595.9077 1909.7449,596.9744 Q1910.4297,598.041 1911.7744,598.041 Q1912.4053,598.041 1912.9988,597.7712 Q1913.5923,597.5015 1914.2231,596.9204 Z " fill="#000000"/><text fill="#000000" font-family="sans-serif" font-size="14" lengthAdjust="spacing" textLength="110" x="1932.25" y="598.791">ActiviteRecreatif</text><line style="stroke:#181818;stroke-width:0.5;" x1="1859.5" x2="2082.5" y1="609.5" y2="609.5"/><rect fill="none" height="6" style="stroke:#C82930;stroke-width:1.0;" width="6" x="1866.5" y="620.2441"/><text fill="#000000" font-family="sans-serif" font-size="14" lengthAdjust="spacing" textLength="199" x="1878.5" y="627.0352">invitationsOuvertes : Boolean</text><line style="stroke:#181818;stroke-width:0.5;" x1="1859.5" x2="2082.5" y1="633.9883" y2="633.9883"/></g><!--class CreationActiviteVueModele--><g id="elem_CreationActiviteVueModele"><rect codeLine="48" fill="#F1F1F1" height="97.4648" id="CreationActiviteVueModele" rx="2.5" ry="2.5" style="stroke:#181818;stroke-width:0.5;" width="1065" x="1613.5" y="81.2"/><ellipse cx="2049.25" cy="97.2" fill="#ADD1B2" rx="11" ry="11" style="stroke:#181818;stroke-width:1.0;"/><path d="M2051.7231,103.3431 Q2051.1421,103.6419 2050.5029,103.7913 Q2049.8638,103.9407 2049.1582,103.9407 Q2046.6514,103.9407 2045.3315,102.2889 Q2044.0117,100.637 2044.0117,97.5159 Q2044.0117,94.3865 2045.3315,92.7347 Q2046.6514,91.0828 2049.1582,91.0828 Q2049.8638,91.0828 2050.5112,91.2322 Q2051.1587,91.3816 2051.7231,91.6805 L2051.7231,94.4031 Q2051.0923,93.8221 2050.4988,93.5523 Q2049.9053,93.2825 2049.2744,93.2825 Q2047.9297,93.2825 2047.2449,94.3492 Q2046.5601,95.4158 2046.5601,97.5159 Q2046.5601,99.6077 2047.2449,100.6744 Q2047.9297,101.741 2049.2744,101.741 Q2049.9053,101.741 2050.4988,101.4712 Q2051.0923,101.2015 2051.7231,100.6204 Z " fill="#000000"/><text fill="#000000" font-family="sans-serif" font-size="14" lengthAdjust="spacing" textLength="185" x="2069.75" y="102.491">CreationActiviteVueModele</text><line style="stroke:#181818;stroke-width:0.5;" x1="1614.5" x2="2677.5" y1="113.2" y2="113.2"/><rect fill="none" height="6" style="stroke:#C82930;stroke-width:1.0;" width="6" x="1621.5" y="123.9441"/><text fill="#000000" font-family="sans-serif" font-size="14" lengthAdjust="spacing" textLength="110" x="1633.5" y="130.7352">activite : Activite</text><rect fill="none" height="6" style="stroke:#C82930;stroke-width:1.0;" width="6" x="1621.5" y="140.4324"/><text fill="#000000" font-family="sans-serif" font-size="14" lengthAdjust="spacing" textLength="189" x="1633.5" y="147.2234">estEnChargement : Boolean</text><line style="stroke:#181818;stroke-width:0.5;" x1="1614.5" x2="2677.5" y1="154.1766" y2="154.1766"/><ellipse cx="1624.5" cy="167.9207" fill="#84BE84" rx="3" ry="3" style="stroke:#038048;stroke-width:1.0;"/><text fill="#000000" font-family="sans-serif" font-size="14" lengthAdjust="spacing" textLength="1039" x="1633.5" y="171.7117">creerActivite(mode : ModeUtilisateur, date : Date, sport : Sport, places : Integer, debut : String, fin : String, lieu : String, niveau? : Niveau) : Task&lt;Activite&gt;</text></g><!--class DetailActiviteVueModele--><g id="elem_DetailActiviteVueModele"><rect codeLine="53" fill="#F1F1F1" height="146.9297" id="DetailActiviteVueModele" rx="2.5" ry="2.5" style="stroke:#181818;stroke-width:0.5;" width="417" x="3175.5" y="56.47"/><ellipse cx="3297.25" cy="72.47" fill="#ADD1B2" rx="11" ry="11" style="stroke:#181818;stroke-width:1.0;"/><path d="M3299.7231,78.6131 Q3299.1421,78.9119 3298.5029,79.0613 Q3297.8638,79.2107 3297.1582,79.2107 Q3294.6514,79.2107 3293.3315,77.5589 Q3292.0117,75.907 3292.0117,72.7859 Q3292.0117,69.6565 3293.3315,68.0047 Q3294.6514,66.3528 3297.1582,66.3528 Q3297.8638,66.3528 3298.5112,66.5022 Q3299.1587,66.6516 3299.7231,66.9505 L3299.7231,69.6731 Q3299.0923,69.0921 3298.4988,68.8223 Q3297.9053,68.5525 3297.2744,68.5525 Q3295.9297,68.5525 3295.2449,69.6192 Q3294.5601,70.6858 3294.5601,72.7859 Q3294.5601,74.8777 3295.2449,75.9444 Q3295.9297,77.011 3297.2744,77.011 Q3297.9053,77.011 3298.4988,76.7412 Q3299.0923,76.4715 3299.7231,75.8904 Z " fill="#000000"/><text fill="#000000" font-family="sans-serif" font-size="14" lengthAdjust="spacing" textLength="165" x="3317.75" y="77.761">DetailActiviteVueModele</text><line style="stroke:#181818;stroke-width:0.5;" x1="3176.5" x2="3591.5" y1="88.47" y2="88.47"/><rect fill="none" height="6" style="stroke:#C82930;stroke-width:1.0;" width="6" x="3183.5" y="99.2141"/><text fill="#000000" font-family="sans-serif" font-size="14" lengthAdjust="spacing" textLength="134" x="3195.5" y="106.0052">activite       : Activite</text><rect fill="none" height="6" style="stroke:#C82930;stroke-width:1.0;" width="6" x="3183.5" y="115.7024"/><text fill="#000000" font-family="sans-serif" font-size="14" lengthAdjust="spacing" textLength="209" x="3195.5" y="122.4934">estEnChargement      : Boolean</text><line style="stroke:#181818;stroke-width:0.5;" x1="3176.5" x2="3591.5" y1="129.4466" y2="129.4466"/><ellipse cx="3186.5" cy="143.1907" fill="#84BE84" rx="3" ry="3" style="stroke:#038048;stroke-width:1.0;"/><text fill="#000000" font-family="sans-serif" font-size="14" lengthAdjust="spacing" textLength="212" x="3195.5" y="146.9817">participer() : Task&lt;Utilisateur&gt;</text><ellipse cx="3186.5" cy="159.679" fill="#84BE84" rx="3" ry="3" style="stroke:#038048;stroke-width:1.0;"/><text fill="#000000" font-family="sans-serif" font-size="14" lengthAdjust="spacing" textLength="228" x="3195.5" y="163.47">supprimerActivite() : Task&lt;Void&gt;</text><ellipse cx="3186.5" cy="176.1673" fill="#84BE84" rx="3" ry="3" style="stroke:#038048;stroke-width:1.0;"/><text fill="#000000" font-family="sans-serif" font-size="14" lengthAdjust="spacing" textLength="246" x="3195.5" y="179.9583">annulerParticipation() : Task&lt;Void&gt;</text><ellipse cx="3186.5" cy="192.6555" fill="#84BE84" rx="3" ry="3" style="stroke:#038048;stroke-width:1.0;"/><text fill="#000000" font-family="sans-serif" font-size="14" lengthAdjust="spacing" textLength="391" x="3195.5" y="196.4466">modifierActivite(nouvellesInfos: Activite) : Task&lt;Activite&gt;</text></g><!--class Emplacement--><g id="elem_Emplacement"><rect codeLine="70" fill="#F1F1F1" height="113.9531" id="Emplacement" rx="2.5" ry="2.5" style="stroke:#181818;stroke-width:0.5;" width="299" x="2118.5" y="552.77"/><ellipse cx="2217.75" cy="568.77" fill="#ADD1B2" rx="11" ry="11" style="stroke:#181818;stroke-width:1.0;"/><path d="M2220.2231,574.9131 Q2219.6421,575.2119 2219.0029,575.3613 Q2218.3638,575.5107 2217.6582,575.5107 Q2215.1514,575.5107 2213.8315,573.8589 Q2212.5117,572.207 2212.5117,569.0859 Q2212.5117,565.9565 2213.8315,564.3047 Q2215.1514,562.6528 2217.6582,562.6528 Q2218.3638,562.6528 2219.0112,562.8022 Q2219.6587,562.9516 2220.2231,563.2505 L2220.2231,565.9731 Q2219.5923,565.3921 2218.9988,565.1223 Q2218.4053,564.8525 2217.7744,564.8525 Q2216.4297,564.8525 2215.7449,565.9192 Q2215.0601,566.9858 2215.0601,569.0859 Q2215.0601,571.1777 2215.7449,572.2444 Q2216.4297,573.311 2217.7744,573.311 Q2218.4053,573.311 2218.9988,573.0412 Q2219.5923,572.7715 2220.2231,572.1904 Z " fill="#000000"/><text fill="#000000" font-family="sans-serif" font-size="14" lengthAdjust="spacing" textLength="92" x="2238.25" y="574.061">Emplacement</text><line style="stroke:#181818;stroke-width:0.5;" x1="2119.5" x2="2416.5" y1="584.77" y2="584.77"/><rect fill="none" height="6" style="stroke:#C82930;stroke-width:1.0;" width="6" x="2126.5" y="595.5141"/><text fill="#000000" font-family="sans-serif" font-size="14" lengthAdjust="spacing" textLength="176" x="2138.5" y="602.3052">nomEmplacement : String</text><rect fill="none" height="6" style="stroke:#C82930;stroke-width:1.0;" width="6" x="2126.5" y="612.0024"/><text fill="#000000" font-family="sans-serif" font-size="14" lengthAdjust="spacing" textLength="273" x="2138.5" y="618.7934">coordonnees : CLLocationCoordinate2D</text><rect fill="none" height="6" style="stroke:#C82930;stroke-width:1.0;" width="6" x="2126.5" y="628.4907"/><text fill="#000000" font-family="sans-serif" font-size="14" lengthAdjust="spacing" textLength="221" x="2138.5" y="635.2817">sportsDisponibles : List&lt;String&gt;</text><rect fill="none" height="6" style="stroke:#C82930;stroke-width:1.0;" width="6" x="2126.5" y="644.979"/><text fill="#000000" font-family="sans-serif" font-size="14" lengthAdjust="spacing" textLength="176" x="2138.5" y="651.77">heuresOuvertures : String</text><line style="stroke:#181818;stroke-width:0.5;" x1="2119.5" x2="2416.5" y1="658.7231" y2="658.7231"/></g><!--class Message--><g id="elem_Message"><rect codeLine="82" fill="#F1F1F1" height="113.9531" id="Message" rx="2.5" ry="2.5" style="stroke:#181818;stroke-width:0.5;" width="183" x="2452.5" y="552.77"/><ellipse cx="2510.25" cy="568.77" fill="#ADD1B2" rx="11" ry="11" style="stroke:#181818;stroke-width:1.0;"/><path d="M2512.7231,574.9131 Q2512.1421,575.2119 2511.5029,575.3613 Q2510.8638,575.5107 2510.1582,575.5107 Q2507.6514,575.5107 2506.3315,573.8589 Q2505.0117,572.207 2505.0117,569.0859 Q2505.0117,565.9565 2506.3315,564.3047 Q2507.6514,562.6528 2510.1582,562.6528 Q2510.8638,562.6528 2511.5112,562.8022 Q2512.1587,562.9516 2512.7231,563.2505 L2512.7231,565.9731 Q2512.0923,565.3921 2511.4988,565.1223 Q2510.9053,564.8525 2510.2744,564.8525 Q2508.9297,564.8525 2508.2449,565.9192 Q2507.5601,566.9858 2507.5601,569.0859 Q2507.5601,571.1777 2508.2449,572.2444 Q2508.9297,573.311 2510.2744,573.311 Q2510.9053,573.311 2511.4988,573.0412 Q2512.0923,572.7715 2512.7231,572.1904 Z " fill="#000000"/><text fill="#000000" font-family="sans-serif" font-size="14" lengthAdjust="spacing" textLength="59" x="2530.75" y="574.061">Message</text><line style="stroke:#181818;stroke-width:0.5;" x1="2453.5" x2="2634.5" y1="584.77" y2="584.77"/><rect fill="none" height="6" style="stroke:#C82930;stroke-width:1.0;" width="6" x="2460.5" y="595.5141"/><text fill="#000000" font-family="sans-serif" font-size="14" lengthAdjust="spacing" textLength="59" x="2472.5" y="602.3052">id : UUID</text><rect fill="none" height="6" style="stroke:#C82930;stroke-width:1.0;" width="6" x="2460.5" y="612.0024"/><text fill="#000000" font-family="sans-serif" font-size="14" lengthAdjust="spacing" textLength="109" x="2472.5" y="618.7934">contenu : String</text><rect fill="none" height="6" style="stroke:#C82930;stroke-width:1.0;" width="6" x="2460.5" y="628.4907"/><text fill="#000000" font-family="sans-serif" font-size="14" lengthAdjust="spacing" textLength="101" x="2472.5" y="635.2817">envoyeA : Date</text><rect fill="none" height="6" style="stroke:#C82930;stroke-width:1.0;" width="6" x="2460.5" y="644.979"/><text fill="#000000" font-family="sans-serif" font-size="14" lengthAdjust="spacing" textLength="157" x="2472.5" y="651.77">expediteur : Utilisateur</text><line style="stroke:#181818;stroke-width:0.5;" x1="2453.5" x2="2634.5" y1="658.7231" y2="658.7231"/></g><!--class ConversationVueModele--><g id="elem_ConversationVueModele"><rect codeLine="88" fill="#F1F1F1" height="130.4414" id="ConversationVueModele" rx="2.5" ry="2.5" style="stroke:#181818;stroke-width:0.5;" width="358" x="2365" y="337.59"/><ellipse cx="2456.25" cy="353.59" fill="#ADD1B2" rx="11" ry="11" style="stroke:#181818;stroke-width:1.0;"/><path d="M2458.7231,359.7331 Q2458.1421,360.0319 2457.5029,360.1813 Q2456.8638,360.3307 2456.1582,360.3307 Q2453.6514,360.3307 2452.3315,358.6789 Q2451.0117,357.027 2451.0117,353.9059 Q2451.0117,350.7765 2452.3315,349.1247 Q2453.6514,347.4728 2456.1582,347.4728 Q2456.8638,347.4728 2457.5112,347.6222 Q2458.1587,347.7716 2458.7231,348.0705 L2458.7231,350.7931 Q2458.0923,350.2121 2457.4988,349.9423 Q2456.9053,349.6725 2456.2744,349.6725 Q2454.9297,349.6725 2454.2449,350.7392 Q2453.5601,351.8058 2453.5601,353.9059 Q2453.5601,355.9977 2454.2449,357.0644 Q2454.9297,358.131 2456.2744,358.131 Q2456.9053,358.131 2457.4988,357.8612 Q2458.0923,357.5915 2458.7231,357.0104 Z " fill="#000000"/><text fill="#000000" font-family="sans-serif" font-size="14" lengthAdjust="spacing" textLength="167" x="2476.75" y="358.881">ConversationVueModele</text><line style="stroke:#181818;stroke-width:0.5;" x1="2366" x2="2722" y1="369.59" y2="369.59"/><rect fill="none" height="6" style="stroke:#C82930;stroke-width:1.0;" width="6" x="2373" y="380.3341"/><text fill="#000000" font-family="sans-serif" font-size="14" lengthAdjust="spacing" textLength="110" x="2385" y="387.1252">activite : Activite</text><rect fill="none" height="6" style="stroke:#C82930;stroke-width:1.0;" width="6" x="2373" y="396.8224"/><text fill="#000000" font-family="sans-serif" font-size="14" lengthAdjust="spacing" textLength="183" x="2385" y="403.6134">messages : List&lt;Message&gt;</text><rect fill="none" height="6" style="stroke:#C82930;stroke-width:1.0;" width="6" x="2373" y="413.3107"/><text fill="#000000" font-family="sans-serif" font-size="14" lengthAdjust="spacing" textLength="189" x="2385" y="420.1017">estEnChargement : Boolean</text><line style="stroke:#181818;stroke-width:0.5;" x1="2366" x2="2722" y1="427.0548" y2="427.0548"/><ellipse cx="2376" cy="440.799" fill="#84BE84" rx="3" ry="3" style="stroke:#038048;stroke-width:1.0;"/><text fill="#000000" font-family="sans-serif" font-size="14" lengthAdjust="spacing" textLength="296" x="2385" y="444.59">obtenirMessages() : Task&lt;List&lt;Message&gt;&gt;</text><ellipse cx="2376" cy="457.2873" fill="#84BE84" rx="3" ry="3" style="stroke:#038048;stroke-width:1.0;"/><text fill="#000000" font-family="sans-serif" font-size="14" lengthAdjust="spacing" textLength="332" x="2385" y="461.0783">envoyerMessage(texte: String) : Task&lt;Message&gt;</text></g><!--class Statistique--><g id="elem_Statistique"><rect codeLine="100" fill="#F1F1F1" height="130.4414" id="Statistique" rx="2.5" ry="2.5" style="stroke:#181818;stroke-width:0.5;" width="192" x="2831" y="337.59"/><ellipse cx="2886.75" cy="353.59" fill="#ADD1B2" rx="11" ry="11" style="stroke:#181818;stroke-width:1.0;"/><path d="M2889.2231,359.7331 Q2888.6421,360.0319 2888.0029,360.1813 Q2887.3638,360.3307 2886.6582,360.3307 Q2884.1514,360.3307 2882.8315,358.6789 Q2881.5117,357.027 2881.5117,353.9059 Q2881.5117,350.7765 2882.8315,349.1247 Q2884.1514,347.4728 2886.6582,347.4728 Q2887.3638,347.4728 2888.0112,347.6222 Q2888.6587,347.7716 2889.2231,348.0705 L2889.2231,350.7931 Q2888.5923,350.2121 2887.9988,349.9423 Q2887.4053,349.6725 2886.7744,349.6725 Q2885.4297,349.6725 2884.7449,350.7392 Q2884.0601,351.8058 2884.0601,353.9059 Q2884.0601,355.9977 2884.7449,357.0644 Q2885.4297,358.131 2886.7744,358.131 Q2887.4053,358.131 2887.9988,357.8612 Q2888.5923,357.5915 2889.2231,357.0104 Z " fill="#000000"/><text fill="#000000" font-family="sans-serif" font-size="14" lengthAdjust="spacing" textLength="72" x="2907.25" y="358.881">Statistique</text><line style="stroke:#181818;stroke-width:0.5;" x1="2832" x2="3022" y1="369.59" y2="369.59"/><rect fill="none" height="6" style="stroke:#C82930;stroke-width:1.0;" width="6" x="2839" y="380.3341"/><text fill="#000000" font-family="sans-serif" font-size="14" lengthAdjust="spacing" textLength="85" x="2851" y="387.1252">sport : Sport</text><rect fill="none" height="6" style="stroke:#C82930;stroke-width:1.0;" width="6" x="2839" y="396.8224"/><text fill="#000000" font-family="sans-serif" font-size="14" lengthAdjust="spacing" textLength="153" x="2851" y="403.6134">partiesJouees : Integer</text><rect fill="none" height="6" style="stroke:#C82930;stroke-width:1.0;" width="6" x="2839" y="413.3107"/><text fill="#000000" font-family="sans-serif" font-size="14" lengthAdjust="spacing" textLength="119" x="2851" y="420.1017">gagnees : Integer</text><rect fill="none" height="6" style="stroke:#C82930;stroke-width:1.0;" width="6" x="2839" y="429.799"/><text fill="#000000" font-family="sans-serif" font-size="14" lengthAdjust="spacing" textLength="117" x="2851" y="436.59">perdues : Integer</text><rect fill="none" height="6" style="stroke:#C82930;stroke-width:1.0;" width="6" x="2839" y="446.2873"/><text fill="#000000" font-family="sans-serif" font-size="14" lengthAdjust="spacing" textLength="166" x="2851" y="453.0783">dernierResultat : Integer</text><line style="stroke:#181818;stroke-width:0.5;" x1="2832" x2="3022" y1="460.0314" y2="460.0314"/></g><!--class StatsVueModele--><g id="elem_StatsVueModele"><rect codeLine="107" fill="#F1F1F1" height="80.9766" id="StatsVueModele" rx="2.5" ry="2.5" style="stroke:#181818;stroke-width:0.5;" width="427" x="2713.5" y="89.44"/><ellipse cx="2868.25" cy="105.44" fill="#ADD1B2" rx="11" ry="11" style="stroke:#181818;stroke-width:1.0;"/><path d="M2870.7231,111.5831 Q2870.1421,111.8819 2869.5029,112.0313 Q2868.8638,112.1807 2868.1582,112.1807 Q2865.6514,112.1807 2864.3315,110.5289 Q2863.0117,108.877 2863.0117,105.7559 Q2863.0117,102.6265 2864.3315,100.9747 Q2865.6514,99.3228 2868.1582,99.3228 Q2868.8638,99.3228 2869.5112,99.4722 Q2870.1587,99.6216 2870.7231,99.9205 L2870.7231,102.6431 Q2870.0923,102.0621 2869.4988,101.7923 Q2868.9053,101.5225 2868.2744,101.5225 Q2866.9297,101.5225 2866.2449,102.5892 Q2865.5601,103.6558 2865.5601,105.7559 Q2865.5601,107.8477 2866.2449,108.9144 Q2866.9297,109.981 2868.2744,109.981 Q2868.9053,109.981 2869.4988,109.7112 Q2870.0923,109.4415 2870.7231,108.8604 Z " fill="#000000"/><text fill="#000000" font-family="sans-serif" font-size="14" lengthAdjust="spacing" textLength="109" x="2888.75" y="110.731">StatsVueModele</text><line style="stroke:#181818;stroke-width:0.5;" x1="2714.5" x2="3139.5" y1="121.44" y2="121.44"/><rect fill="none" height="6" style="stroke:#C82930;stroke-width:1.0;" width="6" x="2721.5" y="132.1841"/><text fill="#000000" font-family="sans-serif" font-size="14" lengthAdjust="spacing" textLength="161" x="2733.5" y="138.9752">stats : List&lt;Statistique&gt;</text><line style="stroke:#181818;stroke-width:0.5;" x1="2714.5" x2="3139.5" y1="145.9283" y2="145.9283"/><ellipse cx="2724.5" cy="159.6724" fill="#84BE84" rx="3" ry="3" style="stroke:#038048;stroke-width:1.0;"/><text fill="#000000" font-family="sans-serif" font-size="14" lengthAdjust="spacing" textLength="401" x="2733.5" y="163.4634">obtenirStats(idUtilisateur: UUID) : Task&lt;List&lt;Statistique&gt;&gt;</text></g><!--class Niveau--><g id="elem_Niveau"><rect codeLine="116" fill="#F1F1F1" height="97.4648" id="Niveau" rx="2.5" ry="2.5" style="stroke:#181818;stroke-width:0.5;" width="104" x="25" y="81.2"/><ellipse cx="51.7" cy="97.2" fill="#EB937F" rx="11" ry="11" style="stroke:#181818;stroke-width:1.0;"/><path d="M55.3143,103.7 L47.5945,103.7 L47.5945,91.3069 L55.3143,91.3069 L55.3143,93.4651 L50.0433,93.4651 L50.0433,96.138 L54.8162,96.138 L54.8162,98.2962 L50.0433,98.2962 L50.0433,101.5418 L55.3143,101.5418 Z " fill="#000000"/><text fill="#000000" font-family="sans-serif" font-size="14" lengthAdjust="spacing" textLength="46" x="68.3" y="102.491">Niveau</text><line style="stroke:#181818;stroke-width:0.5;" x1="26" x2="128" y1="113.2" y2="113.2"/><text fill="#000000" font-family="sans-serif" font-size="14" lengthAdjust="spacing" textLength="63" x="31" y="130.7352">Debutant</text><text fill="#000000" font-family="sans-serif" font-size="14" lengthAdjust="spacing" textLength="92" x="31" y="147.2234">Intermediaire</text><text fill="#000000" font-family="sans-serif" font-size="14" lengthAdjust="spacing" textLength="49" x="31" y="163.7117">Avance</text><line style="stroke:#181818;stroke-width:0.5;" x1="26" x2="128" y1="170.6648" y2="170.6648"/></g><!--class Sport--><g id="elem_Sport"><rect codeLine="121" fill="#F1F1F1" height="245.8594" id="Sport" rx="2.5" ry="2.5" style="stroke:#181818;stroke-width:0.5;" width="86" x="164" y="7"/><ellipse cx="186.65" cy="23" fill="#EB937F" rx="11" ry="11" style="stroke:#181818;stroke-width:1.0;"/><path d="M190.2643,29.5 L182.5445,29.5 L182.5445,17.1069 L190.2643,17.1069 L190.2643,19.2651 L184.9933,19.2651 L184.9933,21.938 L189.7662,21.938 L189.7662,24.0962 L184.9933,24.0962 L184.9933,27.3418 L190.2643,27.3418 Z " fill="#000000"/><text fill="#000000" font-family="sans-serif" font-size="14" lengthAdjust="spacing" textLength="37" x="202.35" y="28.291">Sport</text><line style="stroke:#181818;stroke-width:0.5;" x1="165" x2="249" y1="39" y2="39"/><text fill="#000000" font-family="sans-serif" font-size="14" lengthAdjust="spacing" textLength="69" x="170" y="56.5352">Basketball</text><text fill="#000000" font-family="sans-serif" font-size="14" lengthAdjust="spacing" textLength="45" x="170" y="73.0234">Soccer</text><text fill="#000000" font-family="sans-serif" font-size="14" lengthAdjust="spacing" textLength="66" x="170" y="89.5117">Volleyball</text><text fill="#000000" font-family="sans-serif" font-size="14" lengthAdjust="spacing" textLength="56" x="170" y="106">Baseball</text><text fill="#000000" font-family="sans-serif" font-size="14" lengthAdjust="spacing" textLength="46" x="170" y="122.4883">Tennis</text><text fill="#000000" font-family="sans-serif" font-size="14" lengthAdjust="spacing" textLength="74" x="170" y="138.9766">Badminton</text><text fill="#000000" font-family="sans-serif" font-size="14" lengthAdjust="spacing" textLength="64" x="170" y="155.4648">Pickleball</text><text fill="#000000" font-family="sans-serif" font-size="14" lengthAdjust="spacing" textLength="70" x="170" y="171.9531">Waterpolo</text><text fill="#000000" font-family="sans-serif" font-size="14" lengthAdjust="spacing" textLength="56" x="170" y="188.4414">Football</text><text fill="#000000" font-family="sans-serif" font-size="14" lengthAdjust="spacing" textLength="43" x="170" y="204.9297">Rugby</text><text fill="#000000" font-family="sans-serif" font-size="14" lengthAdjust="spacing" textLength="57" x="170" y="221.418">Ultimate</text><text fill="#000000" font-family="sans-serif" font-size="14" lengthAdjust="spacing" textLength="49" x="170" y="237.9063">Hockey</text><line style="stroke:#181818;stroke-width:0.5;" x1="165" x2="249" y1="244.8594" y2="244.8594"/></g><!--class ModeUtilisateur--><g id="elem_ModeUtilisateur"><rect codeLine="135" fill="#F1F1F1" height="80.9766" id="ModeUtilisateur" rx="2.5" ry="2.5" style="stroke:#181818;stroke-width:0.5;" width="140" x="7" y="362.33"/><ellipse cx="22" cy="378.33" fill="#EB937F" rx="11" ry="11" style="stroke:#181818;stroke-width:1.0;"/><path d="M25.6143,384.83 L17.8945,384.83 L17.8945,372.4369 L25.6143,372.4369 L25.6143,374.5951 L20.3433,374.5951 L20.3433,377.268 L25.1162,377.268 L25.1162,379.4262 L20.3433,379.4262 L20.3433,382.6718 L25.6143,382.6718 Z " fill="#000000"/><text fill="#000000" font-family="sans-serif" font-size="14" lengthAdjust="spacing" textLength="108" x="36" y="383.621">ModeUtilisateur</text><line style="stroke:#181818;stroke-width:0.5;" x1="8" x2="146" y1="394.33" y2="394.33"/><text fill="#000000" font-family="sans-serif" font-size="14" lengthAdjust="spacing" textLength="60" x="13" y="411.8652">Recreatif</text><text fill="#000000" font-family="sans-serif" font-size="14" lengthAdjust="spacing" textLength="72" x="13" y="428.3534">Competitif</text><line style="stroke:#181818;stroke-width:0.5;" x1="8" x2="146" y1="435.3066" y2="435.3066"/></g><!--link AuthVueModele to Utilisateur--><g id="link_AuthVueModele_Utilisateur"><path codeLine="26" d="M732.35,203.75 C775.91,221.38 823.27,239.09 868,252.86 C1071.16,315.42 1309.7237,360.301 1447.5937,383.581 " fill="none" id="AuthVueModele-to-Utilisateur" style="stroke:#181818;stroke-width:1.0;"/><polygon fill="#181818" points="1453.51,384.58,1445.3016,379.1374,1448.5798,383.7475,1443.9696,387.0257,1453.51,384.58" style="stroke:#181818;stroke-width:1.0;"/></g><!--link ProfilUtilisateurVueModele to Utilisateur--><g id="link_ProfilUtilisateurVueModele_Utilisateur"><path codeLine="27" d="M1320.87,203.88 C1368.12,242.66 1416.7548,282.5862 1463.9848,321.3562 " fill="none" id="ProfilUtilisateurVueModele-to-Utilisateur" style="stroke:#181818;stroke-width:1.0;"/><polygon fill="#181818" points="1473.26,328.97,1471.1603,322.0714,1463.9848,321.3562,1466.0844,328.2548,1473.26,328.97" style="stroke:#181818;stroke-width:1.0;"/></g><!--link DetailActiviteVueModele to Activite--><g id="link_DetailActiviteVueModele_Activite"><path codeLine="61" d="M3271.03,203.89 C3236.1,223.09 3196.62,241.57 3158,252.86 C2811.51,354.13 2694.63,212.08 2348,312.86 C2329.63,318.2 2316.4096,323.1655 2298.5796,331.6355 " fill="none" id="DetailActiviteVueModele-to-Activite" style="stroke:#181818;stroke-width:1.0;"/><polygon fill="#181818" points="2293.16,334.21,2303.0057,333.9613,2297.6763,332.0646,2299.573,326.7352,2293.16,334.21" style="stroke:#181818;stroke-width:1.0;"/></g><!--link CreationActiviteVueModele to Utilisateur--><g id="link_CreationActiviteVueModele_Utilisateur"><path codeLine="62" d="M2042.27,179.05 C1937.54,227.62 1781.943,299.7954 1675.653,349.0954 " fill="none" id="CreationActiviteVueModele-to-Utilisateur" style="stroke:#181818;stroke-width:1.0;"/><polygon fill="#181818" points="1670.21,351.62,1680.0576,351.4618,1674.7458,349.5162,1676.6914,344.2044,1670.21,351.62" style="stroke:#181818;stroke-width:1.0;"/></g><!--link CreationActiviteVueModele to Activite--><g id="link_CreationActiviteVueModele_Activite"><path codeLine="63" d="M2152.39,179.05 C2157.3,215.99 2163.4288,262.1024 2169.3488,306.6024 " fill="none" id="CreationActiviteVueModele-to-Activite" style="stroke:#181818;stroke-width:1.0;"/><polygon fill="#181818" points="2170.14,312.55,2172.9182,303.1011,2169.4806,307.5937,2164.9881,304.1561,2170.14,312.55" style="stroke:#181818;stroke-width:1.0;"/></g><!--reverse link Activite to ActiviteCompetitif--><g id="link_Activite_ActiviteCompetitif"><path codeLine="64" d="M2053.5945,449.3443 C1943.6945,488.3043 1794.84,541.08 1693.32,577.07 " fill="none" id="Activite-backto-ActiviteCompetitif" style="stroke:#181818;stroke-width:1.0;"/><polygon fill="none" points="2070.56,443.33,2051.5897,443.6892,2055.5993,454.9995,2070.56,443.33" style="stroke:#181818;stroke-width:1.0;"/></g><!--reverse link Activite to ActiviteRecreatif--><g id="link_Activite_ActiviteRecreatif"><path codeLine="65" d="M2077.1574,505.6405 C2046.2774,535.6305 2026.74,554.6 2003.53,577.15 " fill="none" id="Activite-backto-ActiviteRecreatif" style="stroke:#181818;stroke-width:1.0;"/><polygon fill="none" points="2090.07,493.1,2072.9772,501.3363,2081.3375,509.9447,2090.07,493.1" style="stroke:#181818;stroke-width:1.0;"/></g><!--reverse link Activite to Emplacement--><g id="link_Activite_Emplacement"><path codeLine="76" d="M2224.1161,504.1641 C2232.5861,524.3341 2236.69,534.14 2244.39,552.49 " fill="none" id="Activite-backto-Emplacement" style="stroke:#181818;stroke-width:1.0;"/><polygon fill="none" points="2219.47,493.1,2218.105,500.1807,2224.1161,504.1641,2225.4811,497.0833,2219.47,493.1" style="stroke:#181818;stroke-width:1.0;"/></g><!--reverse link Activite to Message--><g id="link_Activite_Message"><path codeLine="77" d="M2303.5126,472.602 C2354.5426,501.492 2403.88,529.42 2452.29,556.83 " fill="none" id="Activite-backto-Message" style="stroke:#181818;stroke-width:1.0;"/><polygon fill="#181818" points="2293.07,466.69,2296.3207,473.1269,2303.5126,472.602,2300.262,466.1651,2293.07,466.69" style="stroke:#181818;stroke-width:1.0;"/></g><!--link ConversationVueModele to Message--><g id="link_ConversationVueModele_Message"><path codeLine="95" d="M2544,468.37 C2544,495.36 2544,514.42 2544,540.46 " fill="none" id="ConversationVueModele-to-Message" style="stroke:#181818;stroke-width:1.0;"/><polygon fill="#181818" points="2544,552.46,2548,546.46,2544,540.46,2540,546.46,2544,552.46" style="stroke:#181818;stroke-width:1.0;"/></g><!--link StatsVueModele to Statistique--><g id="link_StatsVueModele_Statistique"><path codeLine="111" d="M2927,170.9 C2927,214.68 2927,279.55 2927,331.24 " fill="none" id="StatsVueModele-to-Statistique" style="stroke:#181818;stroke-width:1.0;"/><polygon fill="#181818" points="2927,337.24,2931,328.24,2927,332.24,2923,328.24,2927,337.24" style="stroke:#181818;stroke-width:1.0;"/></g><!--link StatsVueModele to Utilisateur--><g id="link_StatsVueModele_Utilisateur"><path codeLine="112" d="M2867.56,170.7 C2822.49,198.73 2757.93,234.42 2696,252.86 C2421.34,334.65 2337.93,274 2054,312.86 C1921.13,331.05 1775.3238,358.505 1675.9238,378.355 " fill="none" id="StatsVueModele-to-Utilisateur" style="stroke:#181818;stroke-width:1.0;"/><polygon fill="#181818" points="1670.04,379.53,1679.6491,381.6901,1674.9432,378.5508,1678.0824,373.845,1670.04,379.53" style="stroke:#181818;stroke-width:1.0;"/></g><!--SRC=[jLTBSzis4BxxL_0MDPKkFNeyoYWIawfZkgebEMU8NCaOau0AW9fuKl_tBXOW2OgadASl8lQ5VNvOfpdJEjeQddFD39Gg-d8LHPE8Pz5rjDqk5tGIiWX5hgErKLmSY9VAKYaEUPkgZr8P_O6TfE8QMRTScvkr9Kw9dt6K47o7HWqq0cJ0IHmVfP4h9VSyCFrobPB3iz8yFfIGo0no89U7NB7qGfe5h50FpZcWJIpcZqmTe01XaFrUoXoO8Fxl4HSwLLp1g6DwF9IKSTzrltKifr88I0seFjC35eBhl9K2Z54m-mjD98jLrvJLEacUrObp2GqCjRCuYSfMIEqRB-SBlP4PttDGIUt-ICZo1AnC-WCYroWRP585rurQ_CgoStzqeRl6brjhtDjNvxu8z6NLoBaeyXo8rfVSTZzE9jDMvYuaVJ9vsnAzUZFvhhytGuhHRBvPFYmtSVIDYg_Vo7RQA9QQoCzaQlW9KzwB85Gncpdxw_W2c__4CAiB31rPzcVfYGu1SfQ2NlXovbHBAu35SQZ4RMiXyOu-N8CMfEMRCsvE7gkG0EssHNW0hTcXQPN4dQSDslZ8vgWEXXk-zp4AYHqsmn7aknB8m8AdvYOewBY7ubknQ_yUKWMiCSy5Kl4iXVuR6r2vTgvShxJdf2D5PULyebbLb-lweg-OPVG4L2K_mlcp-jPkAvIiATsuNUEnBrzJCvI6NMa2cDjp4Pno3cK8hrJKTtLvxRHjc7wwgPngyhS0mtZ-QlpkxvKiU9am5KUc34_v4HmeaHD15gOafClZKV4Yo5aj-u0OuOIO46MEqE8DKjdwv2gugsrL0AINOYzr4q9lKeRIOM6fZdsuQyxHwx9aRR0U_vl_BEfqHcP0eExvdmvzKPoiRcVpE8dlDj5FXZxNTm6yr81Gn2q4QYrAKcNsrQUXcD_UofJoEhTqBZ3PVmHOUOPxdVNe4Ki37XRiLtrNP9-ZAjNIfY40mPhn5XaUvtx1cvF4w_Niuz2Jy-E9zvxtlZIuM1aGPJlt84xo6MOUgXpfyn4othFdrBWg1IPNKus-5bC7dvBN0LVkq6skl8PkOA5boE632wUI7HduR23SIaWlUCRwGx6xno_gWMYzcMsMwytod-r05_nm3wpjowWD_xUiYjBTCGYvGUDw39tjuS0Eeaj5aC_A3ZK39H2Exq6NELuRS5y2R_HvbsXBR8QtzdSQ5fmqHpmBMj1rSxi1GdLRqhCBBHG78dtirfevKBRuRfiCO2NELE6VOWflOHzpHeiLRMq5JXF3VvNmF3inaG8wIJfK3b9vZz60sU7EXuUrJ5DAxuF4X-tPKr44_ES6XC3jdeXPWUkYj8EoukbJNebymcZKKUOIlpz8MPc-Bm-xP_pTveONRjx_bEaJF5SkdUqnv5opVE4XUBPUhlu7]--></g></svg>