<?xml version="1.0" encoding="us-ascii" standalone="no"?><svg xmlns="http://www.w3.org/2000/svg" xmlns:xlink="http://www.w3.org/1999/xlink" contentStyleType="text/css" height="657px" preserveAspectRatio="none" style="width:1216px;height:657px;background:#FFFFFF;" version="1.1" viewBox="0 0 1216 657" width="1216px" zoomAndPan="magnify"><defs/><g><!--class Utilisateur--><g id="elem_Utilisateur"><rect codeLine="2" fill="#F1F1F1" height="146.9297" id="Utilisateur" rx="2.5" ry="2.5" style="stroke:#181818;stroke-width:0.5;" width="195" x="115" y="495.06"/><ellipse cx="173.25" cy="511.06" fill="#ADD1B2" rx="11" ry="11" style="stroke:#181818;stroke-width:1.0;"/><path d="M175.7231,517.2031 Q175.1421,517.5019 174.5029,517.6513 Q173.8638,517.8007 173.1582,517.8007 Q170.6514,517.8007 169.3315,516.1489 Q168.0117,514.497 168.0117,511.3759 Q168.0117,508.2465 169.3315,506.5947 Q170.6514,504.9428 173.1582,504.9428 Q173.8638,504.9428 174.5112,505.0922 Q175.1587,505.2416 175.7231,505.5405 L175.7231,508.2631 Q175.0923,507.6821 174.4988,507.4123 Q173.9053,507.1425 173.2744,507.1425 Q171.9297,507.1425 171.2449,508.2092 Q170.5601,509.2758 170.5601,511.3759 Q170.5601,513.4677 171.2449,514.5344 Q171.9297,515.601 173.2744,515.601 Q173.9053,515.601 174.4988,515.3312 Q175.0923,515.0615 175.7231,514.4804 Z " fill="#000000"/><text fill="#000000" font-family="sans-serif" font-size="14" lengthAdjust="spacing" textLength="70" x="193.75" y="516.351">Utilisateur</text><line style="stroke:#181818;stroke-width:0.5;" x1="116" x2="309" y1="527.06" y2="527.06"/><rect fill="none" height="6" style="stroke:#C82930;stroke-width:1.0;" width="6" x="123" y="537.8041"/><text fill="#000000" font-family="sans-serif" font-size="14" lengthAdjust="spacing" textLength="154" x="135" y="544.5952">nomUtilisateur : String</text><rect fill="none" height="6" style="stroke:#C82930;stroke-width:1.0;" width="6" x="123" y="554.2924"/><text fill="#000000" font-family="sans-serif" font-size="14" lengthAdjust="spacing" textLength="107" x="135" y="561.0834">prenom : String</text><rect fill="none" height="6" style="stroke:#C82930;stroke-width:1.0;" width="6" x="123" y="570.7807"/><text fill="#000000" font-family="sans-serif" font-size="14" lengthAdjust="spacing" textLength="84" x="135" y="577.5717">nom : String</text><rect fill="none" height="6" style="stroke:#C82930;stroke-width:1.0;" width="6" x="123" y="587.269"/><text fill="#000000" font-family="sans-serif" font-size="14" lengthAdjust="spacing" textLength="106" x="135" y="594.06">courriel : String</text><rect fill="none" height="6" style="stroke:#C82930;stroke-width:1.0;" width="6" x="123" y="603.7573"/><text fill="#000000" font-family="sans-serif" font-size="14" lengthAdjust="spacing" textLength="136" x="135" y="610.5483">motDePasse : String</text><rect fill="none" height="6" style="stroke:#C82930;stroke-width:1.0;" width="6" x="123" y="620.2455"/><text fill="#000000" font-family="sans-serif" font-size="14" lengthAdjust="spacing" textLength="169" x="135" y="627.0366">dateDeNaissance : String</text><line style="stroke:#181818;stroke-width:0.5;" x1="116" x2="309" y1="633.9897" y2="633.9897"/></g><!--class ProfilUtilisateurVueModele--><g id="elem_ProfilUtilisateurVueModele"><rect codeLine="11" fill="#F1F1F1" height="113.9531" id="ProfilUtilisateurVueModele" rx="2.5" ry="2.5" style="stroke:#181818;stroke-width:0.5;" width="411" x="7" y="312.86"/><ellipse cx="117.25" cy="328.86" fill="#ADD1B2" rx="11" ry="11" style="stroke:#181818;stroke-width:1.0;"/><path d="M119.7231,335.0031 Q119.1421,335.3019 118.5029,335.4513 Q117.8638,335.6007 117.1582,335.6007 Q114.6514,335.6007 113.3315,333.9489 Q112.0117,332.297 112.0117,329.1759 Q112.0117,326.0465 113.3315,324.3947 Q114.6514,322.7428 117.1582,322.7428 Q117.8638,322.7428 118.5112,322.8922 Q119.1587,323.0416 119.7231,323.3405 L119.7231,326.0631 Q119.0923,325.4821 118.4988,325.2123 Q117.9053,324.9425 117.2744,324.9425 Q115.9297,324.9425 115.2449,326.0092 Q114.5601,327.0758 114.5601,329.1759 Q114.5601,331.2677 115.2449,332.3344 Q115.9297,333.401 117.2744,333.401 Q117.9053,333.401 118.4988,333.1312 Q119.0923,332.8615 119.7231,332.2804 Z " fill="#000000"/><text fill="#000000" font-family="sans-serif" font-size="14" lengthAdjust="spacing" textLength="182" x="137.75" y="334.151">ProfilUtilisateurVueModele</text><line style="stroke:#181818;stroke-width:0.5;" x1="8" x2="417" y1="344.86" y2="344.86"/><rect fill="none" height="6" style="stroke:#C82930;stroke-width:1.0;" width="6" x="15" y="355.6041"/><text fill="#000000" font-family="sans-serif" font-size="14" lengthAdjust="spacing" textLength="151" x="27" y="362.3952">utilisateur : Utilisateur</text><rect fill="none" height="6" style="stroke:#C82930;stroke-width:1.0;" width="6" x="15" y="372.0924"/><text fill="#000000" font-family="sans-serif" font-size="14" lengthAdjust="spacing" textLength="164" x="27" y="378.8834">estEnChargement : Bool</text><line style="stroke:#181818;stroke-width:0.5;" x1="8" x2="417" y1="385.8366" y2="385.8366"/><ellipse cx="18" cy="399.5807" fill="#84BE84" rx="3" ry="3" style="stroke:#038048;stroke-width:1.0;"/><text fill="#000000" font-family="sans-serif" font-size="14" lengthAdjust="spacing" textLength="385" x="27" y="403.3717">modifierMotDePasse(nouveauMotDePasse : String) : void</text><ellipse cx="18" cy="416.069" fill="#84BE84" rx="3" ry="3" style="stroke:#038048;stroke-width:1.0;"/><text fill="#000000" font-family="sans-serif" font-size="14" lengthAdjust="spacing" textLength="174" x="27" y="419.86">chargerUtilisateur() : void</text></g><!--class ProfilUtilisateurVue--><g id="elem_ProfilUtilisateurVue"><rect codeLine="18" fill="#F1F1F1" height="64.4883" id="ProfilUtilisateurVue" rx="2.5" ry="2.5" style="stroke:#181818;stroke-width:0.5;" width="294" x="65.5" y="97.69"/><ellipse cx="142.25" cy="113.69" fill="#ADD1B2" rx="11" ry="11" style="stroke:#181818;stroke-width:1.0;"/><path d="M144.7231,119.8331 Q144.1421,120.1319 143.5029,120.2813 Q142.8638,120.4307 142.1582,120.4307 Q139.6514,120.4307 138.3315,118.7789 Q137.0117,117.127 137.0117,114.0059 Q137.0117,110.8765 138.3315,109.2247 Q139.6514,107.5728 142.1582,107.5728 Q142.8638,107.5728 143.5112,107.7222 Q144.1587,107.8716 144.7231,108.1705 L144.7231,110.8931 Q144.0923,110.3121 143.4988,110.0423 Q142.9053,109.7725 142.2744,109.7725 Q140.9297,109.7725 140.2449,110.8392 Q139.5601,111.9058 139.5601,114.0059 Q139.5601,116.0977 140.2449,117.1644 Q140.9297,118.231 142.2744,118.231 Q142.9053,118.231 143.4988,117.9612 Q144.0923,117.6915 144.7231,117.1104 Z " fill="#000000"/><text fill="#000000" font-family="sans-serif" font-size="14" lengthAdjust="spacing" textLength="132" x="162.75" y="118.981">ProfilUtilisateurVue</text><line style="stroke:#181818;stroke-width:0.5;" x1="66.5" x2="358.5" y1="129.69" y2="129.69"/><rect fill="none" height="6" style="stroke:#C82930;stroke-width:1.0;" width="6" x="73.5" y="140.4341"/><text fill="#000000" font-family="sans-serif" font-size="14" lengthAdjust="spacing" textLength="268" x="85.5" y="147.2252">vueModele : ProfilUtilisateurVueModele</text><line style="stroke:#181818;stroke-width:0.5;" x1="66.5" x2="358.5" y1="154.1783" y2="154.1783"/></g><!--class Activite--><g id="elem_Activite"><rect codeLine="25" fill="#F1F1F1" height="163.418" id="Activite" rx="2.5" ry="2.5" style="stroke:#181818;stroke-width:0.5;" width="299" x="398" y="486.81"/><ellipse cx="518.25" cy="502.81" fill="#ADD1B2" rx="11" ry="11" style="stroke:#181818;stroke-width:1.0;"/><path d="M520.7231,508.9531 Q520.1421,509.2519 519.5029,509.4013 Q518.8638,509.5507 518.1582,509.5507 Q515.6514,509.5507 514.3315,507.8989 Q513.0117,506.247 513.0117,503.1259 Q513.0117,499.9965 514.3315,498.3447 Q515.6514,496.6928 518.1582,496.6928 Q518.8638,496.6928 519.5112,496.8422 Q520.1587,496.9916 520.7231,497.2905 L520.7231,500.0131 Q520.0923,499.4321 519.4988,499.1623 Q518.9053,498.8925 518.2744,498.8925 Q516.9297,498.8925 516.2449,499.9592 Q515.5601,501.0258 515.5601,503.1259 Q515.5601,505.2177 516.2449,506.2844 Q516.9297,507.351 518.2744,507.351 Q518.9053,507.351 519.4988,507.0812 Q520.0923,506.8115 520.7231,506.2304 Z " fill="#000000"/><text fill="#000000" font-family="sans-serif" font-size="14" lengthAdjust="spacing" textLength="50" x="538.75" y="508.101">Activite</text><line style="stroke:#181818;stroke-width:0.5;" x1="399" x2="696" y1="518.81" y2="518.81"/><rect fill="none" height="6" style="stroke:#C82930;stroke-width:1.0;" width="6" x="406" y="529.5541"/><text fill="#000000" font-family="sans-serif" font-size="14" lengthAdjust="spacing" textLength="59" x="418" y="536.3452">id : UUID</text><rect fill="none" height="6" style="stroke:#C82930;stroke-width:1.0;" width="6" x="406" y="546.0424"/><text fill="#000000" font-family="sans-serif" font-size="14" lengthAdjust="spacing" textLength="85" x="418" y="552.8334">sport : Sport</text><rect fill="none" height="6" style="stroke:#C82930;stroke-width:1.0;" width="6" x="406" y="562.5307"/><text fill="#000000" font-family="sans-serif" font-size="14" lengthAdjust="spacing" textLength="188" x="418" y="569.3217">intervalleDate : DateInterval</text><rect fill="none" height="6" style="stroke:#C82930;stroke-width:1.0;" width="6" x="406" y="579.019"/><text fill="#000000" font-family="sans-serif" font-size="14" lengthAdjust="spacing" textLength="184" x="418" y="585.81">placesDisponibles : Integer</text><rect fill="none" height="6" style="stroke:#C82930;stroke-width:1.0;" width="6" x="406" y="595.5073"/><text fill="#000000" font-family="sans-serif" font-size="14" lengthAdjust="spacing" textLength="103" x="418" y="602.2983">niveau : Niveau</text><rect fill="none" height="6" style="stroke:#C82930;stroke-width:1.0;" width="6" x="406" y="611.9955"/><text fill="#000000" font-family="sans-serif" font-size="14" lengthAdjust="spacing" textLength="273" x="418" y="618.7866">coordonnees : CLLocationCoordinate2D</text><rect fill="none" height="6" style="stroke:#C82930;stroke-width:1.0;" width="6" x="406" y="628.4838"/><text fill="#000000" font-family="sans-serif" font-size="14" lengthAdjust="spacing" textLength="148" x="418" y="635.2748">messages : [Message]</text><line style="stroke:#181818;stroke-width:0.5;" x1="399" x2="696" y1="642.228" y2="642.228"/></g><!--class ActiviteVueModele--><g id="elem_ActiviteVueModele"><rect codeLine="35" fill="#F1F1F1" height="80.9766" id="ActiviteVueModele" rx="2.5" ry="2.5" style="stroke:#181818;stroke-width:0.5;" width="190" x="452.5" y="329.35"/><ellipse cx="481.9" cy="345.35" fill="#ADD1B2" rx="11" ry="11" style="stroke:#181818;stroke-width:1.0;"/><path d="M484.3731,351.4931 Q483.7921,351.7919 483.1529,351.9413 Q482.5138,352.0907 481.8082,352.0907 Q479.3014,352.0907 477.9815,350.4389 Q476.6617,348.787 476.6617,345.6659 Q476.6617,342.5365 477.9815,340.8847 Q479.3014,339.2328 481.8082,339.2328 Q482.5138,339.2328 483.1612,339.3822 Q483.8087,339.5316 484.3731,339.8305 L484.3731,342.5531 Q483.7423,341.9721 483.1488,341.7023 Q482.5553,341.4325 481.9244,341.4325 Q480.5797,341.4325 479.8949,342.4992 Q479.2101,343.5658 479.2101,345.6659 Q479.2101,347.7577 479.8949,348.8244 Q480.5797,349.891 481.9244,349.891 Q482.5553,349.891 483.1488,349.6212 Q483.7423,349.3515 484.3731,348.7704 Z " fill="#000000"/><text fill="#000000" font-family="sans-serif" font-size="14" lengthAdjust="spacing" textLength="126" x="499.1" y="350.641">ActiviteVueModele</text><line style="stroke:#181818;stroke-width:0.5;" x1="453.5" x2="641.5" y1="361.35" y2="361.35"/><rect fill="none" height="6" style="stroke:#C82930;stroke-width:1.0;" width="6" x="460.5" y="372.0941"/><text fill="#000000" font-family="sans-serif" font-size="14" lengthAdjust="spacing" textLength="110" x="472.5" y="378.8852">activite : Activite</text><rect fill="none" height="6" style="stroke:#C82930;stroke-width:1.0;" width="6" x="460.5" y="388.5824"/><text fill="#000000" font-family="sans-serif" font-size="14" lengthAdjust="spacing" textLength="164" x="472.5" y="395.3734">estEnChargement : Bool</text><line style="stroke:#181818;stroke-width:0.5;" x1="453.5" x2="641.5" y1="402.3266" y2="402.3266"/></g><!--class ActiviteVue--><g id="elem_ActiviteVue"><rect codeLine="40" fill="#F1F1F1" height="64.4883" id="ActiviteVue" rx="2.5" ry="2.5" style="stroke:#181818;stroke-width:0.5;" width="238" x="428.5" y="97.69"/><ellipse cx="505.25" cy="113.69" fill="#ADD1B2" rx="11" ry="11" style="stroke:#181818;stroke-width:1.0;"/><path d="M507.7231,119.8331 Q507.1421,120.1319 506.5029,120.2813 Q505.8638,120.4307 505.1582,120.4307 Q502.6514,120.4307 501.3315,118.7789 Q500.0117,117.127 500.0117,114.0059 Q500.0117,110.8765 501.3315,109.2247 Q502.6514,107.5728 505.1582,107.5728 Q505.8638,107.5728 506.5112,107.7222 Q507.1587,107.8716 507.7231,108.1705 L507.7231,110.8931 Q507.0923,110.3121 506.4988,110.0423 Q505.9053,109.7725 505.2744,109.7725 Q503.9297,109.7725 503.2449,110.8392 Q502.5601,111.9058 502.5601,114.0059 Q502.5601,116.0977 503.2449,117.1644 Q503.9297,118.231 505.2744,118.231 Q505.9053,118.231 506.4988,117.9612 Q507.0923,117.6915 507.7231,117.1104 Z " fill="#000000"/><text fill="#000000" font-family="sans-serif" font-size="14" lengthAdjust="spacing" textLength="76" x="525.75" y="118.981">ActiviteVue</text><line style="stroke:#181818;stroke-width:0.5;" x1="429.5" x2="665.5" y1="129.69" y2="129.69"/><rect fill="none" height="6" style="stroke:#C82930;stroke-width:1.0;" width="6" x="436.5" y="140.4341"/><text fill="#000000" font-family="sans-serif" font-size="14" lengthAdjust="spacing" textLength="212" x="448.5" y="147.2252">vueModele : ActiviteVueModele</text><line style="stroke:#181818;stroke-width:0.5;" x1="429.5" x2="665.5" y1="154.1783" y2="154.1783"/></g><!--class Niveau--><g id="elem_Niveau"><rect codeLine="47" fill="#F1F1F1" height="97.4648" id="Niveau" rx="2.5" ry="2.5" style="stroke:#181818;stroke-width:0.5;" width="104" x="701.5" y="81.2"/><ellipse cx="728.2" cy="97.2" fill="#EB937F" rx="11" ry="11" style="stroke:#181818;stroke-width:1.0;"/><path d="M731.8143,103.7 L724.0945,103.7 L724.0945,91.3069 L731.8143,91.3069 L731.8143,93.4651 L726.5433,93.4651 L726.5433,96.138 L731.3162,96.138 L731.3162,98.2962 L726.5433,98.2962 L726.5433,101.5418 L731.8143,101.5418 Z " fill="#000000"/><text fill="#000000" font-family="sans-serif" font-size="14" lengthAdjust="spacing" textLength="46" x="744.8" y="102.491">Niveau</text><line style="stroke:#181818;stroke-width:0.5;" x1="702.5" x2="804.5" y1="113.2" y2="113.2"/><text fill="#000000" font-family="sans-serif" font-size="14" lengthAdjust="spacing" textLength="63" x="707.5" y="130.7352">Debutant</text><text fill="#000000" font-family="sans-serif" font-size="14" lengthAdjust="spacing" textLength="92" x="707.5" y="147.2234">Intermediaire</text><text fill="#000000" font-family="sans-serif" font-size="14" lengthAdjust="spacing" textLength="49" x="707.5" y="163.7117">Avance</text><line style="stroke:#181818;stroke-width:0.5;" x1="702.5" x2="804.5" y1="170.6648" y2="170.6648"/></g><!--class Sport--><g id="elem_Sport"><rect codeLine="53" fill="#F1F1F1" height="245.8594" id="Sport" rx="2.5" ry="2.5" style="stroke:#181818;stroke-width:0.5;" width="86" x="840.5" y="7"/><ellipse cx="863.15" cy="23" fill="#EB937F" rx="11" ry="11" style="stroke:#181818;stroke-width:1.0;"/><path d="M866.7643,29.5 L859.0445,29.5 L859.0445,17.1069 L866.7643,17.1069 L866.7643,19.2651 L861.4933,19.2651 L861.4933,21.938 L866.2662,21.938 L866.2662,24.0962 L861.4933,24.0962 L861.4933,27.3418 L866.7643,27.3418 Z " fill="#000000"/><text fill="#000000" font-family="sans-serif" font-size="14" lengthAdjust="spacing" textLength="37" x="878.85" y="28.291">Sport</text><line style="stroke:#181818;stroke-width:0.5;" x1="841.5" x2="925.5" y1="39" y2="39"/><text fill="#000000" font-family="sans-serif" font-size="14" lengthAdjust="spacing" textLength="69" x="846.5" y="56.5352">Basketball</text><text fill="#000000" font-family="sans-serif" font-size="14" lengthAdjust="spacing" textLength="45" x="846.5" y="73.0234">Soccer</text><text fill="#000000" font-family="sans-serif" font-size="14" lengthAdjust="spacing" textLength="66" x="846.5" y="89.5117">Volleyball</text><text fill="#000000" font-family="sans-serif" font-size="14" lengthAdjust="spacing" textLength="56" x="846.5" y="106">Baseball</text><text fill="#000000" font-family="sans-serif" font-size="14" lengthAdjust="spacing" textLength="46" x="846.5" y="122.4883">Tennis</text><text fill="#000000" font-family="sans-serif" font-size="14" lengthAdjust="spacing" textLength="74" x="846.5" y="138.9766">Badminton</text><text fill="#000000" font-family="sans-serif" font-size="14" lengthAdjust="spacing" textLength="64" x="846.5" y="155.4648">Pickleball</text><text fill="#000000" font-family="sans-serif" font-size="14" lengthAdjust="spacing" textLength="70" x="846.5" y="171.9531">Waterpolo</text><text fill="#000000" font-family="sans-serif" font-size="14" lengthAdjust="spacing" textLength="56" x="846.5" y="188.4414">Football</text><text fill="#000000" font-family="sans-serif" font-size="14" lengthAdjust="spacing" textLength="43" x="846.5" y="204.9297">Rugby</text><text fill="#000000" font-family="sans-serif" font-size="14" lengthAdjust="spacing" textLength="57" x="846.5" y="221.418">Ultimate</text><text fill="#000000" font-family="sans-serif" font-size="14" lengthAdjust="spacing" textLength="49" x="846.5" y="237.9063">Hockey</text><line style="stroke:#181818;stroke-width:0.5;" x1="841.5" x2="925.5" y1="244.8594" y2="244.8594"/></g><!--class Message--><g id="elem_Message"><rect codeLine="68" fill="#F1F1F1" height="130.4414" id="Message" rx="2.5" ry="2.5" style="stroke:#181818;stroke-width:0.5;" width="183" x="994" y="503.3"/><ellipse cx="1051.75" cy="519.3" fill="#ADD1B2" rx="11" ry="11" style="stroke:#181818;stroke-width:1.0;"/><path d="M1054.2231,525.4431 Q1053.6421,525.7419 1053.0029,525.8913 Q1052.3638,526.0407 1051.6582,526.0407 Q1049.1514,526.0407 1047.8315,524.3889 Q1046.5117,522.737 1046.5117,519.6159 Q1046.5117,516.4865 1047.8315,514.8347 Q1049.1514,513.1828 1051.6582,513.1828 Q1052.3638,513.1828 1053.0112,513.3322 Q1053.6587,513.4816 1054.2231,513.7805 L1054.2231,516.5031 Q1053.5923,515.9221 1052.9988,515.6523 Q1052.4053,515.3825 1051.7744,515.3825 Q1050.4297,515.3825 1049.7449,516.4492 Q1049.0601,517.5158 1049.0601,519.6159 Q1049.0601,521.7077 1049.7449,522.7744 Q1050.4297,523.841 1051.7744,523.841 Q1052.4053,523.841 1052.9988,523.5712 Q1053.5923,523.3015 1054.2231,522.7204 Z " fill="#000000"/><text fill="#000000" font-family="sans-serif" font-size="14" lengthAdjust="spacing" textLength="59" x="1072.25" y="524.591">Message</text><line style="stroke:#181818;stroke-width:0.5;" x1="995" x2="1176" y1="535.3" y2="535.3"/><rect fill="none" height="6" style="stroke:#C82930;stroke-width:1.0;" width="6" x="1002" y="546.0441"/><text fill="#000000" font-family="sans-serif" font-size="14" lengthAdjust="spacing" textLength="59" x="1014" y="552.8352">id : UUID</text><rect fill="none" height="6" style="stroke:#C82930;stroke-width:1.0;" width="6" x="1002" y="562.5324"/><text fill="#000000" font-family="sans-serif" font-size="14" lengthAdjust="spacing" textLength="109" x="1014" y="569.3234">contenu : String</text><rect fill="none" height="6" style="stroke:#C82930;stroke-width:1.0;" width="6" x="1002" y="579.0207"/><text fill="#000000" font-family="sans-serif" font-size="14" lengthAdjust="spacing" textLength="101" x="1014" y="585.8117">envoyeA : Date</text><rect fill="none" height="6" style="stroke:#C82930;stroke-width:1.0;" width="6" x="1002" y="595.509"/><text fill="#000000" font-family="sans-serif" font-size="14" lengthAdjust="spacing" textLength="157" x="1014" y="602.3">expediteur : Utilisateur</text><rect fill="none" height="6" style="stroke:#C82930;stroke-width:1.0;" width="6" x="1002" y="611.9973"/><text fill="#000000" font-family="sans-serif" font-size="14" lengthAdjust="spacing" textLength="109" x="1014" y="618.7883">idActivite : UUID</text><line style="stroke:#181818;stroke-width:0.5;" x1="995" x2="1176" y1="625.7414" y2="625.7414"/></g><!--class MessageVueModele--><g id="elem_MessageVueModele"><rect codeLine="76" fill="#F1F1F1" height="80.9766" id="MessageVueModele" rx="2.5" ry="2.5" style="stroke:#181818;stroke-width:0.5;" width="190" x="990.5" y="329.35"/><ellipse cx="1015.85" cy="345.35" fill="#ADD1B2" rx="11" ry="11" style="stroke:#181818;stroke-width:1.0;"/><path d="M1018.3231,351.4931 Q1017.7421,351.7919 1017.1029,351.9413 Q1016.4638,352.0907 1015.7582,352.0907 Q1013.2514,352.0907 1011.9315,350.4389 Q1010.6117,348.787 1010.6117,345.6659 Q1010.6117,342.5365 1011.9315,340.8847 Q1013.2514,339.2328 1015.7582,339.2328 Q1016.4638,339.2328 1017.1112,339.3822 Q1017.7587,339.5316 1018.3231,339.8305 L1018.3231,342.5531 Q1017.6923,341.9721 1017.0988,341.7023 Q1016.5053,341.4325 1015.8744,341.4325 Q1014.5297,341.4325 1013.8449,342.4992 Q1013.1601,343.5658 1013.1601,345.6659 Q1013.1601,347.7577 1013.8449,348.8244 Q1014.5297,349.891 1015.8744,349.891 Q1016.5053,349.891 1017.0988,349.6212 Q1017.6923,349.3515 1018.3231,348.7704 Z " fill="#000000"/><text fill="#000000" font-family="sans-serif" font-size="14" lengthAdjust="spacing" textLength="135" x="1032.15" y="350.641">MessageVueModele</text><line style="stroke:#181818;stroke-width:0.5;" x1="991.5" x2="1179.5" y1="361.35" y2="361.35"/><rect fill="none" height="6" style="stroke:#C82930;stroke-width:1.0;" width="6" x="998.5" y="372.0941"/><text fill="#000000" font-family="sans-serif" font-size="14" lengthAdjust="spacing" textLength="131" x="1010.5" y="378.8852">message : Message</text><rect fill="none" height="6" style="stroke:#C82930;stroke-width:1.0;" width="6" x="998.5" y="388.5824"/><text fill="#000000" font-family="sans-serif" font-size="14" lengthAdjust="spacing" textLength="164" x="1010.5" y="395.3734">estEnChargement : Bool</text><line style="stroke:#181818;stroke-width:0.5;" x1="991.5" x2="1179.5" y1="402.3266" y2="402.3266"/></g><!--class MessageVue--><g id="elem_MessageVue"><rect codeLine="81" fill="#F1F1F1" height="64.4883" id="MessageVue" rx="2.5" ry="2.5" style="stroke:#181818;stroke-width:0.5;" width="247" x="962" y="97.69"/><ellipse cx="1038.75" cy="113.69" fill="#ADD1B2" rx="11" ry="11" style="stroke:#181818;stroke-width:1.0;"/><path d="M1041.2231,119.8331 Q1040.6421,120.1319 1040.0029,120.2813 Q1039.3638,120.4307 1038.6582,120.4307 Q1036.1514,120.4307 1034.8315,118.7789 Q1033.5117,117.127 1033.5117,114.0059 Q1033.5117,110.8765 1034.8315,109.2247 Q1036.1514,107.5728 1038.6582,107.5728 Q1039.3638,107.5728 1040.0112,107.7222 Q1040.6587,107.8716 1041.2231,108.1705 L1041.2231,110.8931 Q1040.5923,110.3121 1039.9988,110.0423 Q1039.4053,109.7725 1038.7744,109.7725 Q1037.4297,109.7725 1036.7449,110.8392 Q1036.0601,111.9058 1036.0601,114.0059 Q1036.0601,116.0977 1036.7449,117.1644 Q1037.4297,118.231 1038.7744,118.231 Q1039.4053,118.231 1039.9988,117.9612 Q1040.5923,117.6915 1041.2231,117.1104 Z " fill="#000000"/><text fill="#000000" font-family="sans-serif" font-size="14" lengthAdjust="spacing" textLength="85" x="1059.25" y="118.981">MessageVue</text><line style="stroke:#181818;stroke-width:0.5;" x1="963" x2="1208" y1="129.69" y2="129.69"/><rect fill="none" height="6" style="stroke:#C82930;stroke-width:1.0;" width="6" x="970" y="140.4341"/><text fill="#000000" font-family="sans-serif" font-size="14" lengthAdjust="spacing" textLength="221" x="982" y="147.2252">vueModele : MessageVueModele</text><line style="stroke:#181818;stroke-width:0.5;" x1="963" x2="1208" y1="154.1783" y2="154.1783"/></g><!--link ProfilUtilisateurVueModele to Utilisateur--><g id="link_ProfilUtilisateurVueModele_Utilisateur"><path codeLine="22" d="M212.5,427.2 C212.5,448.2 212.5,460.34 212.5,482.62 " fill="none" id="ProfilUtilisateurVueModele-to-Utilisateur" style="stroke:#181818;stroke-width:1.0;"/><polygon fill="#181818" points="212.5,494.62,216.5,488.62,212.5,482.62,208.5,488.62,212.5,494.62" style="stroke:#181818;stroke-width:1.0;"/><text fill="#000000" font-family="sans-serif" font-size="13" lengthAdjust="spacing" textLength="8" x="204.0375" y="447.2861">1</text><text fill="#000000" font-family="sans-serif" font-size="13" lengthAdjust="spacing" textLength="8" x="204.1188" y="484.4443">1</text></g><!--link ProfilUtilisateurVue to ProfilUtilisateurVueModele--><g id="link_ProfilUtilisateurVue_ProfilUtilisateurVueModele"><path codeLine="23" d="M212.5,162.52 C212.5,200.69 212.5,259.61 212.5,306.45 " fill="none" id="ProfilUtilisateurVue-to-ProfilUtilisateurVueModele" style="stroke:#181818;stroke-width:1.0;stroke-dasharray:7.0,7.0;"/><polygon fill="#181818" points="212.5,312.45,216.5,303.45,212.5,307.45,208.5,303.45,212.5,312.45" style="stroke:#181818;stroke-width:1.0;"/></g><!--link ActiviteVueModele to Activite--><g id="link_ActiviteVueModele_Activite"><path codeLine="44" d="M547.5,410.64 C547.5,432.41 547.5,448.21 547.5,474.34 " fill="none" id="ActiviteVueModele-to-Activite" style="stroke:#181818;stroke-width:1.0;"/><polygon fill="#181818" points="547.5,486.34,551.5,480.34,547.5,474.34,543.5,480.34,547.5,486.34" style="stroke:#181818;stroke-width:1.0;"/><text fill="#000000" font-family="sans-serif" font-size="13" lengthAdjust="spacing" textLength="8" x="538.8625" y="430.9312">1</text><text fill="#000000" font-family="sans-serif" font-size="13" lengthAdjust="spacing" textLength="8" x="539.1438" y="475.9352">1</text></g><!--link ActiviteVue to ActiviteVueModele--><g id="link_ActiviteVue_ActiviteVueModele"><path codeLine="45" d="M547.5,162.52 C547.5,205.5 547.5,276.38 547.5,323.18 " fill="none" id="ActiviteVue-to-ActiviteVueModele" style="stroke:#181818;stroke-width:1.0;stroke-dasharray:7.0,7.0;"/><polygon fill="#181818" points="547.5,329.18,551.5,320.18,547.5,324.18,543.5,320.18,547.5,329.18" style="stroke:#181818;stroke-width:1.0;"/></g><!--link MessageVueModele to Message--><g id="link_MessageVueModele_Message"><path codeLine="85" d="M1085.5,410.64 C1085.5,437.13 1085.5,460.53 1085.5,491 " fill="none" id="MessageVueModele-to-Message" style="stroke:#181818;stroke-width:1.0;"/><polygon fill="#181818" points="1085.5,503,1089.5,497,1085.5,491,1081.5,497,1085.5,503" style="stroke:#181818;stroke-width:1.0;"/><text fill="#000000" font-family="sans-serif" font-size="13" lengthAdjust="spacing" textLength="8" x="1076.8625" y="430.9312">1</text><text fill="#000000" font-family="sans-serif" font-size="13" lengthAdjust="spacing" textLength="8" x="1077.0625" y="492.5987">1</text></g><!--link MessageVue to MessageVueModele--><g id="link_MessageVue_MessageVueModele"><path codeLine="86" d="M1085.5,162.52 C1085.5,205.5 1085.5,276.38 1085.5,323.18 " fill="none" id="MessageVue-to-MessageVueModele" style="stroke:#181818;stroke-width:1.0;stroke-dasharray:7.0,7.0;"/><polygon fill="#181818" points="1085.5,329.18,1089.5,320.18,1085.5,324.18,1081.5,320.18,1085.5,329.18" style="stroke:#181818;stroke-width:1.0;"/></g><!--SRC=[bLHDRzim3BtxLnWzTHjIO3lcC22DDwn0KmJBqXsA7HI9JOd8OY39neAW_tsKPYV-YjUTn8XFvEFZYwKMpgLhZngTy53Oz9YawIGzFYDezPeQofl9QRho5issXTbRODXmxc92Kc4jXyFPd7m6IwO6mtd5T39u4EYSCB81UaqI6KTQMdf6tU3-MC2256ZeJ5YqnciyQA70-Izc_YBi5d8mdf6tH9eX7z9Z3lw58cc53BUB4_bhGqK9ebZqntd7KKcesYLax60RBAvFmD7HEaELfs6d8qg4aYCwNNsyIYUJz_5iwZBO_-RcyrYdYlfCUYpHT-cY2jAlxxBMhTkJ3Kglmjd66m-s55f3ndqO4ewxwZ9jcrCB2Iv3BcPmey4nEY1PvRPHCIoAamynw7YLh29Z8BwUtz-J51x9pCCz6kxzgSqy1_RbDgAV5d_ZN-VzrI9SSgIeHPgUe6_nub3z4LlqM8G2VMfD4vpOD3k4nVTh9M2AlD8oaiXWKtXXmXxZed9GAD26oMPb-0-7zl5HN7TySolS3lo6zym_LYHbtDaZyTuFrIr3e0f_W37euftAsI5aE5wYtEaQyPCtPVUaYUElH7NbxyLsS-1phJtc8ehzZUGE3cT9goM-oRQIU3vJ37-um9HqW5bbsNRgzvur-STt2DNix8xOkilnagigJ_Ap2lXVdZeN7x5Kbq5utcFLD5JDf54zsAbN9_a3]--></g></svg>