<svg width="760" height="318" viewBox="0 0 760 318" fill="none" xmlns="http://www.w3.org/2000/svg">
<path d="M326.402 216.756C316.313 222.194 304.532 215.962 301.064 205.037C296.409 190.376 293.86 174.773 293.774 158.58C293.321 73.0348 361.76 3.19481 447.043 1.66238L449.061 1.63899L602.232 0.827238C688.451 0.370399 758.716 69.8947 759.174 156.114L759.172 158.132C759.109 166.581 746.69 168.006 741.934 161.022C734.469 150.06 724.774 140.654 713.205 133.861L703.075 127.912C698.038 124.955 694.299 120.28 691.8 115.001C676.165 81.9744 642.645 59.1001 603.808 58.8138L602.54 58.8128L449.368 59.6245C395.597 59.9097 352.156 103.391 351.761 157.004L351.759 158.273C351.791 164.273 352.361 170.145 353.423 175.842C354.397 181.068 354.385 186.567 351.87 191.25C346.073 202.044 337.194 210.94 326.402 216.756ZM448.698 313.865C436.05 313.772 431.764 298.181 440.153 288.716C445.877 282.256 451.172 275.408 455.991 268.215C461.009 260.728 469.198 255.782 478.212 255.734L562.306 255.288C572.786 255.233 581.969 261.832 587.12 270.959C596.208 287.065 609.172 300.923 625.287 310.386C625.786 310.679 625.64 311.434 625.067 311.515C618.144 312.492 611.073 313.017 603.887 313.055L450.715 313.867L448.698 313.865Z" fill="white"/>
<circle cx="680.492" cy="233.289" r="62.668" transform="rotate(179.696 680.492 233.289)" stroke="white" stroke-width="31.6065"/>
<path d="M433.598 100.818C443.687 95.3806 455.468 101.613 458.936 112.537C463.591 127.198 466.14 142.801 466.226 158.994C466.683 245.213 397.158 315.478 310.939 315.935L157.768 316.747L155.75 316.745C70.4549 316.117 1.27992 247.006 0.82637 161.461C0.778822 152.487 14.0152 150.898 19.2195 158.208C26.5193 168.462 35.8129 177.265 46.7946 183.713L56.925 189.662C61.9617 192.62 65.701 197.294 68.2003 202.574C83.8354 235.6 117.355 258.474 156.192 258.761L157.46 258.762L310.632 257.95C364.403 257.665 407.844 214.184 408.239 160.57L408.241 159.301C408.209 153.301 407.638 147.43 406.576 141.732C405.602 136.507 405.614 131.007 408.129 126.325C413.926 115.531 422.806 106.634 433.598 100.818ZM311.302 3.70941C323.95 3.80259 328.236 19.3929 319.847 28.8585C314.122 35.3178 308.828 42.1664 304.008 49.3591C298.99 56.8465 290.801 61.7925 281.787 61.8403L197.694 62.2859C187.214 62.3415 178.031 55.7429 172.88 46.6157C163.792 30.5091 150.828 16.6516 134.713 7.18828C134.213 6.89478 134.36 6.13977 134.933 6.05882C141.208 5.17329 147.603 4.65921 154.096 4.54255L156.113 4.51917L309.285 3.70741L311.302 3.70941Z" fill="white"/>
<circle cx="79.5081" cy="84.2853" r="62.668" transform="rotate(-0.303644 79.5081 84.2853)" stroke="white" stroke-width="31.6065"/>
</svg>
