<svg width="38" height="38" viewBox="0 0 38 38" fill="none" xmlns="http://www.w3.org/2000/svg">
<path d="M11.8748 26.1251L22.9582 22.9584L26.1248 11.8751L15.0415 15.0417L11.8748 26.1251ZM18.9998 21.3751C18.3401 21.3751 17.7796 21.1444 17.3183 20.6832C16.8571 20.2219 16.6259 19.6609 16.6248 19.0001C16.6238 18.3393 16.8549 17.7788 17.3183 17.3186C17.7817 16.8584 18.3422 16.6272 18.9998 16.6251C19.6574 16.623 20.2185 16.8541 20.6829 17.3186C21.1474 17.783 21.378 18.3435 21.3748 19.0001C21.3717 19.6566 21.141 20.2177 20.6829 20.6832C20.2248 21.1487 19.6638 21.3793 18.9998 21.3751ZM18.9998 34.8334C16.8096 34.8334 14.7512 34.4175 12.8248 33.5857C10.8985 32.754 9.22276 31.6261 7.79776 30.2022C6.37276 28.7782 5.24489 27.1025 4.41417 25.1751C3.58345 23.2476 3.16756 21.1893 3.16651 19.0001C3.16545 16.8109 3.58134 14.7525 4.41417 12.8251C5.24701 10.8976 6.37487 9.22194 7.79776 7.798C9.22064 6.37405 10.8963 5.24619 12.8248 4.41441C14.7533 3.58264 16.8117 3.16675 18.9998 3.16675C21.188 3.16675 23.2463 3.58264 25.1748 4.41441C27.1033 5.24619 28.779 6.37405 30.2019 7.798C31.6248 9.22194 32.7532 10.8976 33.5871 12.8251C34.421 14.7525 34.8363 16.8109 34.8332 19.0001C34.83 21.1893 34.4141 23.2476 33.5855 25.1751C32.7569 27.1025 31.629 28.7782 30.2019 30.2022C28.7748 31.6261 27.0991 32.7545 25.1748 33.5873C23.2506 34.4202 21.1922 34.8355 18.9998 34.8334ZM18.9998 31.6667C22.5096 31.6667 25.4984 30.4333 27.9663 27.9665C30.4341 25.4997 31.6676 22.5109 31.6665 19.0001C31.6655 15.4893 30.432 12.5005 27.9663 10.0337C25.5005 7.56683 22.5117 6.33341 18.9998 6.33341C15.488 6.33341 12.4992 7.56736 10.0334 10.0352C7.56765 12.5031 6.33423 15.4914 6.33317 19.0001C6.33212 22.5087 7.56606 25.4976 10.035 27.9665C12.504 30.4354 15.4922 31.6689 18.9998 31.6667Z" fill="white"/>
</svg>
