<svg width="38" height="38" viewBox="0 0 38 38" fill="none" xmlns="http://www.w3.org/2000/svg">
<path d="M6.25 28.125C6.25 26.4674 6.90848 24.8777 8.08058 23.7056C9.25268 22.5335 10.8424 21.875 12.5 21.875H25C26.6576 21.875 28.2473 22.5335 29.4194 23.7056C30.5915 24.8777 31.25 26.4674 31.25 28.125C31.25 28.9538 30.9208 29.7487 30.3347 30.3347C29.7487 30.9208 28.9538 31.25 28.125 31.25H9.375C8.5462 31.25 7.75134 30.9208 7.16529 30.3347C6.57924 29.7487 6.25 28.9538 6.25 28.125Z" stroke="black" stroke-width="3.5" stroke-linejoin="round"/>
<path d="M18.75 15.625C21.3388 15.625 23.4375 13.5263 23.4375 10.9375C23.4375 8.34867 21.3388 6.25 18.75 6.25C16.1612 6.25 14.0625 8.34867 14.0625 10.9375C14.0625 13.5263 16.1612 15.625 18.75 15.625Z" stroke="black" stroke-width="3.5"/>
</svg>
