<svg width="25" height="31" viewBox="0 0 25 31" fill="none" xmlns="http://www.w3.org/2000/svg">
<path d="M16.3462 5.8125C17.9393 5.8125 19.2308 4.51135 19.2308 2.90625C19.2308 1.30115 17.9393 0 16.3462 0C14.753 0 13.4615 1.30115 13.4615 2.90625C13.4615 4.51135 14.753 5.8125 16.3462 5.8125ZM6.83233 19.2218L5.94291 21.3119H1.92308C0.861178 21.3119 0 22.1795 0 23.2494C0 24.3193 0.861178 25.1869 1.92308 25.1869H6.57752C7.73437 25.1869 8.77584 24.4942 9.22836 23.4256L9.75661 22.1832L9.11538 21.8017C8.07452 21.1823 7.30889 20.2656 6.83233 19.2218ZM23.0769 13.5619H20.4309L18.8648 10.3378C18.1136 8.7908 16.7344 7.65979 15.152 7.25352L10.8804 5.97356C9.17969 5.56184 7.40865 5.94025 6.02224 7.01133L3.63822 8.85256C2.79507 9.50344 2.63522 10.7192 3.28245 11.5687C3.92969 12.4182 5.13582 12.5774 5.97837 11.9271L8.36358 10.0859C8.82452 9.72928 9.41166 9.60152 9.88221 9.71414L10.7656 9.97873L8.51442 15.2699C7.75601 17.0548 8.4357 19.1455 10.095 20.1324L15.2019 23.1701L13.5511 28.4819C13.2338 29.5027 13.7981 30.5895 14.8113 30.9092C15.003 30.9697 15.1965 30.9988 15.387 30.9988C16.2049 30.9988 16.9633 30.4678 17.2212 29.6395L19.1226 23.5206C19.4778 22.2631 18.9489 20.9123 17.8221 20.2275L14.1418 18.0393L16.0234 13.2997L17.2416 15.8082C17.7224 16.7975 18.7392 17.4363 19.8323 17.4363H23.0769C24.1388 17.4363 25 16.5687 25 15.4988C25 14.4289 24.1388 13.5619 23.0769 13.5619Z" fill="white"/>
</svg>
