<?xml version="1.0" encoding="us-ascii" standalone="no"?><svg xmlns="http://www.w3.org/2000/svg" xmlns:xlink="http://www.w3.org/1999/xlink" contentStyleType="text/css" height="673px" preserveAspectRatio="none" style="width:839px;height:673px;background:#FFFFFF;" version="1.1" viewBox="0 0 839 673" width="839px" zoomAndPan="magnify"><defs/><g><!--class Utilisateur--><g id="elem_Utilisateur"><rect codeLine="2" fill="#F1F1F1" height="146.9297" id="Utilisateur" rx="2.5" ry="2.5" style="stroke:#181818;stroke-width:0.5;" width="195" x="529" y="519.79"/><ellipse cx="587.25" cy="535.79" fill="#ADD1B2" rx="11" ry="11" style="stroke:#181818;stroke-width:1.0;"/><path d="M589.7231,541.9331 Q589.1421,542.2319 588.5029,542.3813 Q587.8638,542.5307 587.1582,542.5307 Q584.6514,542.5307 583.3315,540.8789 Q582.0117,539.227 582.0117,536.1059 Q582.0117,532.9765 583.3315,531.3247 Q584.6514,529.6728 587.1582,529.6728 Q587.8638,529.6728 588.5112,529.8222 Q589.1587,529.9716 589.7231,530.2705 L589.7231,532.9931 Q589.0923,532.4121 588.4988,532.1423 Q587.9053,531.8725 587.2744,531.8725 Q585.9297,531.8725 585.2449,532.9392 Q584.5601,534.0058 584.5601,536.1059 Q584.5601,538.1977 585.2449,539.2644 Q585.9297,540.331 587.2744,540.331 Q587.9053,540.331 588.4988,540.0612 Q589.0923,539.7915 589.7231,539.2104 Z " fill="#000000"/><text fill="#000000" font-family="sans-serif" font-size="14" lengthAdjust="spacing" textLength="70" x="607.75" y="541.081">Utilisateur</text><line style="stroke:#181818;stroke-width:0.5;" x1="530" x2="723" y1="551.79" y2="551.79"/><rect fill="none" height="6" style="stroke:#C82930;stroke-width:1.0;" width="6" x="537" y="562.5341"/><text fill="#000000" font-family="sans-serif" font-size="14" lengthAdjust="spacing" textLength="154" x="549" y="569.3252">nomUtilisateur : String</text><rect fill="none" height="6" style="stroke:#C82930;stroke-width:1.0;" width="6" x="537" y="579.0224"/><text fill="#000000" font-family="sans-serif" font-size="14" lengthAdjust="spacing" textLength="107" x="549" y="585.8134">prenom : String</text><rect fill="none" height="6" style="stroke:#C82930;stroke-width:1.0;" width="6" x="537" y="595.5107"/><text fill="#000000" font-family="sans-serif" font-size="14" lengthAdjust="spacing" textLength="84" x="549" y="602.3017">nom : String</text><rect fill="none" height="6" style="stroke:#C82930;stroke-width:1.0;" width="6" x="537" y="611.999"/><text fill="#000000" font-family="sans-serif" font-size="14" lengthAdjust="spacing" textLength="106" x="549" y="618.79">courriel : String</text><rect fill="none" height="6" style="stroke:#C82930;stroke-width:1.0;" width="6" x="537" y="628.4873"/><text fill="#000000" font-family="sans-serif" font-size="14" lengthAdjust="spacing" textLength="136" x="549" y="635.2783">motDePasse : String</text><rect fill="none" height="6" style="stroke:#C82930;stroke-width:1.0;" width="6" x="537" y="644.9755"/><text fill="#000000" font-family="sans-serif" font-size="14" lengthAdjust="spacing" textLength="169" x="549" y="651.7666">dateDeNaissance : String</text><line style="stroke:#181818;stroke-width:0.5;" x1="530" x2="723" y1="658.7197" y2="658.7197"/></g><!--class ProfilUtilisateurVueModele--><g id="elem_ProfilUtilisateurVueModele"><rect codeLine="11" fill="#F1F1F1" height="113.9531" id="ProfilUtilisateurVueModele" rx="2.5" ry="2.5" style="stroke:#181818;stroke-width:0.5;" width="411" x="421" y="279.88"/><ellipse cx="531.25" cy="295.88" fill="#ADD1B2" rx="11" ry="11" style="stroke:#181818;stroke-width:1.0;"/><path d="M533.7231,302.0231 Q533.1421,302.3219 532.5029,302.4713 Q531.8638,302.6207 531.1582,302.6207 Q528.6514,302.6207 527.3315,300.9689 Q526.0117,299.317 526.0117,296.1959 Q526.0117,293.0665 527.3315,291.4147 Q528.6514,289.7628 531.1582,289.7628 Q531.8638,289.7628 532.5112,289.9122 Q533.1587,290.0616 533.7231,290.3605 L533.7231,293.0831 Q533.0923,292.5021 532.4988,292.2323 Q531.9053,291.9625 531.2744,291.9625 Q529.9297,291.9625 529.2449,293.0292 Q528.5601,294.0958 528.5601,296.1959 Q528.5601,298.2877 529.2449,299.3544 Q529.9297,300.421 531.2744,300.421 Q531.9053,300.421 532.4988,300.1512 Q533.0923,299.8815 533.7231,299.3004 Z " fill="#000000"/><text fill="#000000" font-family="sans-serif" font-size="14" lengthAdjust="spacing" textLength="182" x="551.75" y="301.171">ProfilUtilisateurVueModele</text><line style="stroke:#181818;stroke-width:0.5;" x1="422" x2="831" y1="311.88" y2="311.88"/><rect fill="none" height="6" style="stroke:#C82930;stroke-width:1.0;" width="6" x="429" y="322.6241"/><text fill="#000000" font-family="sans-serif" font-size="14" lengthAdjust="spacing" textLength="151" x="441" y="329.4152">utilisateur : Utilisateur</text><rect fill="none" height="6" style="stroke:#C82930;stroke-width:1.0;" width="6" x="429" y="339.1124"/><text fill="#000000" font-family="sans-serif" font-size="14" lengthAdjust="spacing" textLength="164" x="441" y="345.9034">estEnChargement : Bool</text><line style="stroke:#181818;stroke-width:0.5;" x1="422" x2="831" y1="352.8566" y2="352.8566"/><ellipse cx="432" cy="366.6007" fill="#84BE84" rx="3" ry="3" style="stroke:#038048;stroke-width:1.0;"/><text fill="#000000" font-family="sans-serif" font-size="14" lengthAdjust="spacing" textLength="385" x="441" y="370.3917">modifierMotDePasse(nouveauMotDePasse : String) : void</text><ellipse cx="432" cy="383.089" fill="#84BE84" rx="3" ry="3" style="stroke:#038048;stroke-width:1.0;"/><text fill="#000000" font-family="sans-serif" font-size="14" lengthAdjust="spacing" textLength="174" x="441" y="386.88">chargerUtilisateur() : void</text></g><!--class ProfilUtilisateurVue--><g id="elem_ProfilUtilisateurVue"><rect codeLine="18" fill="#F1F1F1" height="64.4883" id="ProfilUtilisateurVue" rx="2.5" ry="2.5" style="stroke:#181818;stroke-width:0.5;" width="294" x="479.5" y="48.22"/><ellipse cx="556.25" cy="64.22" fill="#ADD1B2" rx="11" ry="11" style="stroke:#181818;stroke-width:1.0;"/><path d="M558.7231,70.3631 Q558.1421,70.6619 557.5029,70.8113 Q556.8638,70.9607 556.1582,70.9607 Q553.6514,70.9607 552.3315,69.3089 Q551.0117,67.657 551.0117,64.5359 Q551.0117,61.4065 552.3315,59.7547 Q553.6514,58.1028 556.1582,58.1028 Q556.8638,58.1028 557.5112,58.2522 Q558.1587,58.4016 558.7231,58.7005 L558.7231,61.4231 Q558.0923,60.8421 557.4988,60.5723 Q556.9053,60.3025 556.2744,60.3025 Q554.9297,60.3025 554.2449,61.3692 Q553.5601,62.4358 553.5601,64.5359 Q553.5601,66.6277 554.2449,67.6944 Q554.9297,68.761 556.2744,68.761 Q556.9053,68.761 557.4988,68.4912 Q558.0923,68.2215 558.7231,67.6404 Z " fill="#000000"/><text fill="#000000" font-family="sans-serif" font-size="14" lengthAdjust="spacing" textLength="132" x="576.75" y="69.511">ProfilUtilisateurVue</text><line style="stroke:#181818;stroke-width:0.5;" x1="480.5" x2="772.5" y1="80.22" y2="80.22"/><rect fill="none" height="6" style="stroke:#C82930;stroke-width:1.0;" width="6" x="487.5" y="90.9641"/><text fill="#000000" font-family="sans-serif" font-size="14" lengthAdjust="spacing" textLength="268" x="499.5" y="97.7552">vueModele : ProfilUtilisateurVueModele</text><line style="stroke:#181818;stroke-width:0.5;" x1="480.5" x2="772.5" y1="104.7083" y2="104.7083"/></g><!--class Activite--><g id="elem_Activite"><rect codeLine="25" fill="#F1F1F1" height="146.9297" id="Activite" rx="2.5" ry="2.5" style="stroke:#181818;stroke-width:0.5;" width="299" x="7" y="7"/><ellipse cx="127.25" cy="23" fill="#ADD1B2" rx="11" ry="11" style="stroke:#181818;stroke-width:1.0;"/><path d="M129.7231,29.1431 Q129.1421,29.4419 128.5029,29.5913 Q127.8638,29.7407 127.1582,29.7407 Q124.6514,29.7407 123.3315,28.0889 Q122.0117,26.437 122.0117,23.3159 Q122.0117,20.1865 123.3315,18.5347 Q124.6514,16.8828 127.1582,16.8828 Q127.8638,16.8828 128.5112,17.0322 Q129.1587,17.1816 129.7231,17.4805 L129.7231,20.2031 Q129.0923,19.6221 128.4988,19.3523 Q127.9053,19.0825 127.2744,19.0825 Q125.9297,19.0825 125.2449,20.1492 Q124.5601,21.2158 124.5601,23.3159 Q124.5601,25.4077 125.2449,26.4744 Q125.9297,27.541 127.2744,27.541 Q127.9053,27.541 128.4988,27.2712 Q129.0923,27.0015 129.7231,26.4204 Z " fill="#000000"/><text fill="#000000" font-family="sans-serif" font-size="14" lengthAdjust="spacing" textLength="50" x="147.75" y="28.291">Activite</text><line style="stroke:#181818;stroke-width:0.5;" x1="8" x2="305" y1="39" y2="39"/><rect fill="none" height="6" style="stroke:#C82930;stroke-width:1.0;" width="6" x="15" y="49.7441"/><text fill="#000000" font-family="sans-serif" font-size="14" lengthAdjust="spacing" textLength="59" x="27" y="56.5352">id : UUID</text><rect fill="none" height="6" style="stroke:#C82930;stroke-width:1.0;" width="6" x="15" y="66.2324"/><text fill="#000000" font-family="sans-serif" font-size="14" lengthAdjust="spacing" textLength="85" x="27" y="73.0234">sport : Sport</text><rect fill="none" height="6" style="stroke:#C82930;stroke-width:1.0;" width="6" x="15" y="82.7207"/><text fill="#000000" font-family="sans-serif" font-size="14" lengthAdjust="spacing" textLength="188" x="27" y="89.5117">intervalleDate : DateInterval</text><rect fill="none" height="6" style="stroke:#C82930;stroke-width:1.0;" width="6" x="15" y="99.209"/><text fill="#000000" font-family="sans-serif" font-size="14" lengthAdjust="spacing" textLength="184" x="27" y="106">placesDisponibles : Integer</text><rect fill="none" height="6" style="stroke:#C82930;stroke-width:1.0;" width="6" x="15" y="115.6973"/><text fill="#000000" font-family="sans-serif" font-size="14" lengthAdjust="spacing" textLength="103" x="27" y="122.4883">niveau : Niveau</text><rect fill="none" height="6" style="stroke:#C82930;stroke-width:1.0;" width="6" x="15" y="132.1855"/><text fill="#000000" font-family="sans-serif" font-size="14" lengthAdjust="spacing" textLength="273" x="27" y="138.9766">coordonnees : CLLocationCoordinate2D</text><line style="stroke:#181818;stroke-width:0.5;" x1="8" x2="305" y1="145.9297" y2="145.9297"/></g><!--class Niveau--><g id="elem_Niveau"><rect codeLine="34" fill="#F1F1F1" height="97.4648" id="Niveau" rx="2.5" ry="2.5" style="stroke:#181818;stroke-width:0.5;" width="104" x="340.5" y="31.73"/><ellipse cx="367.2" cy="47.73" fill="#EB937F" rx="11" ry="11" style="stroke:#181818;stroke-width:1.0;"/><path d="M370.8143,54.23 L363.0945,54.23 L363.0945,41.8369 L370.8143,41.8369 L370.8143,43.9951 L365.5433,43.9951 L365.5433,46.668 L370.3162,46.668 L370.3162,48.8262 L365.5433,48.8262 L365.5433,52.0718 L370.8143,52.0718 Z " fill="#000000"/><text fill="#000000" font-family="sans-serif" font-size="14" lengthAdjust="spacing" textLength="46" x="383.8" y="53.021">Niveau</text><line style="stroke:#181818;stroke-width:0.5;" x1="341.5" x2="443.5" y1="63.73" y2="63.73"/><text fill="#000000" font-family="sans-serif" font-size="14" lengthAdjust="spacing" textLength="63" x="346.5" y="81.2652">Debutant</text><text fill="#000000" font-family="sans-serif" font-size="14" lengthAdjust="spacing" textLength="92" x="346.5" y="97.7534">Intermediaire</text><text fill="#000000" font-family="sans-serif" font-size="14" lengthAdjust="spacing" textLength="49" x="346.5" y="114.2417">Avance</text><line style="stroke:#181818;stroke-width:0.5;" x1="341.5" x2="443.5" y1="121.1948" y2="121.1948"/></g><!--class Sport--><g id="elem_Sport"><rect codeLine="40" fill="#F1F1F1" height="245.8594" id="Sport" rx="2.5" ry="2.5" style="stroke:#181818;stroke-width:0.5;" width="86" x="113.5" y="213.93"/><ellipse cx="136.15" cy="229.93" fill="#EB937F" rx="11" ry="11" style="stroke:#181818;stroke-width:1.0;"/><path d="M139.7643,236.43 L132.0445,236.43 L132.0445,224.0369 L139.7643,224.0369 L139.7643,226.1951 L134.4933,226.1951 L134.4933,228.868 L139.2662,228.868 L139.2662,231.0262 L134.4933,231.0262 L134.4933,234.2718 L139.7643,234.2718 Z " fill="#000000"/><text fill="#000000" font-family="sans-serif" font-size="14" lengthAdjust="spacing" textLength="37" x="151.85" y="235.221">Sport</text><line style="stroke:#181818;stroke-width:0.5;" x1="114.5" x2="198.5" y1="245.93" y2="245.93"/><text fill="#000000" font-family="sans-serif" font-size="14" lengthAdjust="spacing" textLength="69" x="119.5" y="263.4652">Basketball</text><text fill="#000000" font-family="sans-serif" font-size="14" lengthAdjust="spacing" textLength="45" x="119.5" y="279.9534">Soccer</text><text fill="#000000" font-family="sans-serif" font-size="14" lengthAdjust="spacing" textLength="66" x="119.5" y="296.4417">Volleyball</text><text fill="#000000" font-family="sans-serif" font-size="14" lengthAdjust="spacing" textLength="56" x="119.5" y="312.93">Baseball</text><text fill="#000000" font-family="sans-serif" font-size="14" lengthAdjust="spacing" textLength="46" x="119.5" y="329.4183">Tennis</text><text fill="#000000" font-family="sans-serif" font-size="14" lengthAdjust="spacing" textLength="74" x="119.5" y="345.9066">Badminton</text><text fill="#000000" font-family="sans-serif" font-size="14" lengthAdjust="spacing" textLength="64" x="119.5" y="362.3948">Pickleball</text><text fill="#000000" font-family="sans-serif" font-size="14" lengthAdjust="spacing" textLength="70" x="119.5" y="378.8831">Waterpolo</text><text fill="#000000" font-family="sans-serif" font-size="14" lengthAdjust="spacing" textLength="56" x="119.5" y="395.3714">Football</text><text fill="#000000" font-family="sans-serif" font-size="14" lengthAdjust="spacing" textLength="43" x="119.5" y="411.8597">Rugby</text><text fill="#000000" font-family="sans-serif" font-size="14" lengthAdjust="spacing" textLength="57" x="119.5" y="428.348">Ultimate</text><text fill="#000000" font-family="sans-serif" font-size="14" lengthAdjust="spacing" textLength="49" x="119.5" y="444.8363">Hockey</text><line style="stroke:#181818;stroke-width:0.5;" x1="114.5" x2="198.5" y1="451.7894" y2="451.7894"/></g><!--link ProfilUtilisateurVueModele to Utilisateur--><g id="link_ProfilUtilisateurVueModele_Utilisateur"><path codeLine="22" d="M626.5,394.32 C626.5,431.21 626.5,467.73 626.5,507.5 " fill="none" id="ProfilUtilisateurVueModele-to-Utilisateur" style="stroke:#181818;stroke-width:1.0;"/><polygon fill="#181818" points="626.5,519.5,630.5,513.5,626.5,507.5,622.5,513.5,626.5,519.5" style="stroke:#181818;stroke-width:1.0;"/><text fill="#000000" font-family="sans-serif" font-size="13" lengthAdjust="spacing" textLength="8" x="618.0375" y="414.4177">1</text><text fill="#000000" font-family="sans-serif" font-size="13" lengthAdjust="spacing" textLength="8" x="618.1063" y="509.0851">1</text></g><!--link ProfilUtilisateurVue to ProfilUtilisateurVueModele--><g id="link_ProfilUtilisateurVue_ProfilUtilisateurVueModele"><path codeLine="23" d="M626.5,113.17 C626.5,154.73 626.5,222.33 626.5,273.49 " fill="none" id="ProfilUtilisateurVue-to-ProfilUtilisateurVueModele" style="stroke:#181818;stroke-width:1.0;stroke-dasharray:7.0,7.0;"/><polygon fill="#181818" points="626.5,279.49,630.5,270.49,626.5,274.49,622.5,270.49,626.5,279.49" style="stroke:#181818;stroke-width:1.0;"/></g><!--SRC=[VL9DImD13BttLmoU_A227Zq8sbKKh1HhzJoTIMleR5BcOw4K_xkPOIsxjVQKRFAIlFTsZDCXg5b4Xq57I5vj1qeDrNQ1uEot8gwxpHirZHvfsSEiFGZiSE_VXk7alQI7kpN72YP23GxthT2fu5LZ29fC1_Gz69WYQU9vWQx3_IF1c2qus5EOUl8w0pqKXFX0eo_jbr03HK7UCpk1NAXj3V6B2scB0lVZ7VbJujI0JkE_SiuaQnXjVuKf5to7nUaEU5HQAwhPYRmvua1UTSIVawiJDHoUbzZru-3ToylROvTQodScOeDnttkqsVBPSzMhXZNxxF0qnpwU8lX6EmULt1583izjKVKVfTC6GeMoZ73k80Ww8yNT_WF5_8Ea-LgIlJVAtZ8HbEdHomiR7P5fbEj8Slkwobu2fRgTBm8hcAUeANClv6gmgD63VDyr-RtkXeh4CdElmmhYNBJ9nvIDAJm_MBHksgf0e4tVWGX3gTbQN66IV89cvNuHdyBEhzcnv8_ClvlVqdA-aJXp4Mk1IFh4PWMRJEa7]--></g></svg>