<svg width="40" height="40" viewBox="0 0 40 40" fill="none" xmlns="http://www.w3.org/2000/svg">
<path d="M24.1667 29.9999C23 29.9999 22.0139 29.5971 21.2083 28.7916C20.4028 27.986 20 26.9999 20 25.8333C20 24.6666 20.4028 23.6805 21.2083 22.8749C22.0139 22.0694 23 21.6666 24.1667 21.6666C25.3333 21.6666 26.3194 22.0694 27.125 22.8749C27.9306 23.6805 28.3333 24.6666 28.3333 25.8333C28.3333 26.9999 27.9306 27.986 27.125 28.7916C26.3194 29.5971 25.3333 29.9999 24.1667 29.9999ZM8.33333 36.6666C7.41667 36.6666 6.63222 36.3405 5.98 35.6883C5.32778 35.036 5.00111 34.251 5 33.3333V9.99992C5 9.08325 5.32667 8.29881 5.98 7.64658C6.63333 6.99436 7.41778 6.6677 8.33333 6.66659H10V3.33325H13.3333V6.66659H26.6667V3.33325H30V6.66659H31.6667C32.5833 6.66659 33.3683 6.99325 34.0217 7.64658C34.675 8.29992 35.0011 9.08436 35 9.99992V33.3333C35 34.2499 34.6739 35.0349 34.0217 35.6883C33.3694 36.3416 32.5844 36.6677 31.6667 36.6666H8.33333ZM8.33333 33.3333H31.6667V16.6666H8.33333V33.3333ZM8.33333 13.3333H31.6667V9.99992H8.33333V13.3333Z" fill="white"/>
</svg>
