<svg width="66" height="73" viewBox="0 0 66 73" fill="none" xmlns="http://www.w3.org/2000/svg">
<path d="M66 33C66 48.4666 55.3598 61.448 41 65.0237C38.4386 65.6615 37.5 72.5 33.5 72.5C29.5 72.5 28.2561 65.7434 26 65.2561C11.137 62.0458 0 48.8235 0 33C0 14.7746 14.7746 0 33 0C51.2254 0 66 14.7746 66 33Z" fill="white"/>
<circle cx="32.5" cy="33.5" r="27.5" fill="url(#paint0_linear_188_1480)"/>
<path d="M36.3462 23.8125C37.9393 23.8125 39.2308 22.5113 39.2308 20.9062C39.2308 19.3012 37.9393 18 36.3462 18C34.753 18 33.4615 19.3012 33.4615 20.9062C33.4615 22.5113 34.753 23.8125 36.3462 23.8125ZM26.8323 37.2218L25.9429 39.3119H21.9231C20.8612 39.3119 20 40.1795 20 41.2494C20 42.3193 20.8612 43.1869 21.9231 43.1869H26.5775C27.7344 43.1869 28.7758 42.4942 29.2284 41.4256L29.7566 40.1832L29.1154 39.8017C28.0745 39.1823 27.3089 38.2656 26.8323 37.2218ZM43.0769 31.5619H40.4309L38.8648 28.3378C38.1136 26.7908 36.7344 25.6598 35.152 25.2535L30.8804 23.9736C29.1797 23.5618 27.4087 23.9403 26.0222 25.0113L23.6382 26.8526C22.7951 27.5034 22.6352 28.7192 23.2825 29.5687C23.9297 30.4182 25.1358 30.5774 25.9784 29.9271L28.3636 28.0859C28.8245 27.7293 29.4117 27.6015 29.8822 27.7141L30.7656 27.9787L28.5144 33.2699C27.756 35.0548 28.4357 37.1455 30.095 38.1324L35.2019 41.1701L33.5511 46.4819C33.2338 47.5027 33.7981 48.5895 34.8113 48.9092C35.003 48.9697 35.1965 48.9988 35.387 48.9988C36.2049 48.9988 36.9633 48.4678 37.2212 47.6395L39.1226 41.5206C39.4778 40.2631 38.9489 38.9123 37.8221 38.2275L34.1418 36.0393L36.0234 31.2997L37.2416 33.8082C37.7224 34.7975 38.7392 35.4363 39.8323 35.4363H43.0769C44.1388 35.4363 45 34.5687 45 33.4988C45 32.4289 44.1388 31.5619 43.0769 31.5619Z" fill="white"/>
<defs>
<linearGradient id="paint0_linear_188_1480" x1="32.5" y1="6" x2="32.5" y2="61" gradientUnits="userSpaceOnUse">
<stop stop-color="#66C9A5"/>
<stop offset="1" stop-color="#0B885A"/>
</linearGradient>
</defs>
</svg>
